<mxfile host="app.diagrams.net" modified="2023-02-28T15:06:31.895Z" agent="5.0 (Windows NT 10.0; Win64; x64) AppleWebKit/537.36 (KHTML, like Gecko) Chrome/110.0.0.0 Safari/537.36" etag="WUwmZTlt47UKw_8u0y1N" version="20.8.20" type="github">
  <diagram name="Page-1" id="kBt9bErPF2uWes7MKhG4">
    <mxGraphModel dx="1644" dy="477" grid="1" gridSize="10" guides="1" tooltips="1" connect="1" arrows="1" fold="1" page="1" pageScale="1" pageWidth="850" pageHeight="1100" math="0" shadow="0">
      <root>
        <mxCell id="0" />
        <mxCell id="1" parent="0" />
        <mxCell id="nZfVPGNK5ss3Tm6Llg2C-1" value="" style="sketch=0;aspect=fixed;html=1;points=[];align=center;image;fontSize=12;image=img/lib/mscae/Azure_Boards.svg;" vertex="1" parent="1">
          <mxGeometry x="171.5" y="175" width="45" height="45" as="geometry" />
        </mxCell>
        <mxCell id="nZfVPGNK5ss3Tm6Llg2C-3" value="" style="shape=image;verticalLabelPosition=bottom;labelBackgroundColor=default;verticalAlign=top;aspect=fixed;imageAspect=0;image=data:image/png,iVBORw0KGgoAAAANSUhEUgAAANMAAADQCAYAAACdk1R3AAAAAXNSR0IArs4c6QAAAARnQU1BAACxjwv8YQUAAAAJcEhZcwAAFiUAABYlAUlSJPAAACzYSURBVHhe7Z0JdBzXdab/3tGNrbFvxA4C4ALuO0VSVCxbtLzLTmwn9kk8y8nkODMnk8lk5sSTyTIztufEWTSZJMdxbI8lW5YlSpRELaZILaQoriBBgjsJgiBBLCT2tbfqnnvfqwZAWqIIogkWgPs1Cl1VXVVd/er9de99W9lGR0djEARhytjNd0EQpoiISRAShIhJEBKEiEkQEoSISRAShIhJEBKEiEkQEoSISRAShIhJEBKEiEkQEoSISRAShIhJEBKEiEkQEoSISRAShIhJEBKEiEkQEoSISRAShIhJEBKEiEkQEoSISRAShIhJsAgxevF/PWkmjvVj/XF/REyCJWAp6dc4SlgxWseTXlLrrYqISbAEMcqKtpiNJrVAf1HYaJaXbVFeZzelZF1Bybh5giUg40O5Uf2ZxNB7vQ+X6q9h4OYwVn9qCXwZSXC6Hebn1kMsk2AZWEiRoIG+9n6c3Hse+7fX4/1fHMWZfZcQHg0jFmUTZV1ETMKDh6xSLBrDUN8IOi7dxOm9TXjzh+9hz4/3KyEN9QwDDtoo7gNaFBGTcN9g1025bxPgRRUC0X9duEDLJKTASBjH95zBi3+7C9u/8waaD7YiHDHg8jnhdMSzKb+PO4JWQ8Qk3D9U6YFW00RhqYIFftFyT2svjuw8iWf//BXsfeogrp5shREOweaKwUa502Zd7fwKIiZhehhz0cgmRaLo7xzAqXcv4v3n63Hg+aPk2p0jF+8GAsMB2By0uTO+z8xBxCTcR8isxNi0aFFEyW0b6h1G2/kOnCEhvfP0Ibz7s8M4d6AJwUAIdpedJgeilCtnlow0IibhvhIj68IvdutG+4I4+04Tnvufr+KZ//4azr53GcHRMDwpHtjtbtraRttTLEUve8xNSzMre4qYhISgYqL4yzQryiaFohhoH8L+547guW+/jl0/2If2ppuIuaKwe0hkTtrYTpMtotw6Fp2dAyVepmPNJERMQkJgizIx8xsUF3W19KDx7fN46yeHcPCFBpx5/yI6Wm6QSxeEnWIinriQQXF7fDTD4iVGxCQkCJ35jZCBge4hXD3VioY3z+K9Z4/i7Z8dxOXjrRgdHqWYiGyPYwYV0U0CEZOQEOzgZj42DPYO4wzFQj//81fw8l/vxum9FxCzh+D00hZOx4yLgyaDiEmYMtx6oae1H3t/dphEtBOvP/kOuq72IOY04PDZtdDYbbMZepqliJiEO8LOGxcqfBChQBg3rnTh6Ksnsef7+3H4xQZcrr+C7rYuhMMR5c7ZnVyYYO6gZmani8eImIQ7o4rmxsXEi1zp2tfRj+ZjV1H/2insfeYg9j9fj5aT11V9kZOskY1EZLNx2dxE8YiYhDkLKWesVI2LvGMwyOKMDIzg5O7T2Pk3u7Hze3tw6cgVRF0ROJJJRLO0cOFuEDEJd4CEoTrl6Y55HeTSvbe9Hj/+o+ex6wf70drUATsJyOX1wmafuyKKI2IS7kgkGEHv1V4c2nESb//4IA69cAJXGtvQf3OQ4iJDWSJuSzeLvbe7xsJiGvfTGV66dY1w7/xqkcLt6csi6m7rw4Wjl3H05RPY98xRHH31FMVFrUpEdo8DDhe5dSwiVWErWEpMuilKVBW16vn4+omTfgn3TjwNdSs47ldkpi39M4wYwmyN2vtxbNcp7HhyF7b/79fRfLwFoWAATh9tqIq35RrcjuUsU3AwhKHuEbpUdGrssuvLrKspaOLWW+JTTB2VnuaLLQunaDRooOdqH/ZRXPTTb72CPf98EF2X+uFN8cCZZFfF3Lax9j/C7VhsQJUYrp3twOWGVgz3jWLBujLkVmQjOd1Ln2kBKWvF118tCfeGmYgmXErXfukmLh+7iqb6FrQ1deBmS49q0W2neMhO+lE9KegGN52d9ZSXEgRKaubhG09+CWm5qXB5uKOTNbHYbcaGwb5hXDp+FXufPoIDzx/DqXfOo/V8J0LDPKAG2SURUgLQKRgcDaHrWi/OvH8JR3Y24P0X6lH/y0ZcO9OGcCgMh1sXLsTGSuqUayB8CJaz2Xa7EzHDhh66yO88fRAvPbkb7/78EDou3FQDbkRChrZOwr1BacctugPDQXQ291BcdAbPfedVvPmDfbjScFUVcbu8LrJILpKcU09R7lukLQLHWMIHY00HmBx6u8uAO8WN4e4AGl49h3/5T8+rEWuaT11HOMB9XeLEg2lzoA6+eZrTrZ0C5gLxYgX9y/m3j8/plIiEDXS19OLdZw7hhf/1Ot78+/fQ19pP8ZAdTi/3iTBTjEvoVFs6erdzXyOKq7hFg8RMH4olU0aHxQ5yMezKbw6MjqL7RhdO7DqHXd/fi10/2ofLJ68hOBJSW+t94pkgPnFRhblujhDjwIZHRVW/PO6aaSIBA+3kLu9//ghe/ptdOPLyCVy/2I7R0RFEDdqaLNKtFa8T025upeO9YuHbDAW79N9mpwvNHclIWF3XunFu/0Uceuk4Dmw/hhN7zuH6hU6MDgbUHjor8IXn+7Hm1iw1exnP7vFfTPaIYkyuL+q6SnHR3os4uOM4Dr5YT+l2Fh1N3EkvALuXRMRDaU1nycIsxcJi0tlDuyicRZywU0DMXZx7rvVg31MH8fLfvYUDO47h2rk2jPSPwghFEI1RTEUvvjubRVBzB/q5rAn+/RFuQ9c/jBtNN9Hw5hm8+k9vY8//24+Wk22UjhQTuR2IcXdxTt8YZYNxNQr3iDXFRC5azBZRmUIHweTuOYJ0tuy3c827G85UBwa7+vD+z49h+1/+Erv/ZR86m7oQGTX09mydVM38HMklShecYvSbSRw3rvSRS9eAp/7rdvzyH96jtOmldHNRXOQiS8TpSMlJaclxEOwcG4mapooFxaRyBV1bbvDFsCh4mes4eKJ5uqPaHXRnpVc4HMLN1i7Uv34KL/7V63jrqQNoOn4NIYoRtGXiSaMKJszjz2SiMGiiX8K/x/wprInQaBidl7qx92cH8cY/vItDLzbgRmsPAsFR2j5CV5vTjre+/ffP7PSwChYVE8MxE+UQdcfkiZd4mWfZYtGLAmYeU8AwIuimTHN2/yUKrBtxgO7Ix147reOpIR1PTWTmZx1KBKUi/Uu4IIZjoFPvnMP+Z4/g8I4GnN13Hp2Xb1DaGGZ9EW0r1ue+Yk03b5JwAM3ui4tigc4LN3Fo+zHsfHIPDr9yEi1n2jDQPYBwMKyznlniNZNRVppe3LdouG8Y18934ujrJ/Hmj/Zh1w/2ovVMu7LYjiR9wxGmh1khpjhRigUcyWStvDEM9g3g3e8fwva/eA1v/Xg/uT83EIuYsQFNcfdoJsIuHfd25XEXDu84iWf+9BXs+eEBXD/XAXeqG3A6VZmCGo9OmDZmlZg4l6n6Es5t9Gc4g+ju6MHxV8/hpe++pR5RcvVUG4JDIZUhZxoc70WiEVw5fR1vP30AO763C/ueOYSu612IhMP69ztsJCRu1U3WayzuFKaDWSUmdn3isKDsXjsiEYqn2ntx/nATuX0n8N7TR3Cc4ike75rrYLiR561Y824eGAyg/WIn6l87ifefO6Z+y9kDF9HZclP9Rm7BwJO+kXBMydyfO4YuxLkdsYKzyzLdhoot7JTJKHaIuaMkoHa6kx/B7n/eT5nyBK6eblNPY+DW0XFN8RtnFiu4gfzcIm6LyL1aWxqvo35nI17/h7048ItjuH62E0Y0CleyS4loom7UTUW5s+OV14mD0yaeWPQ9Zvw51g8tyuvUqjnHrBZTHGWlKMO5fG64/A7caO+mOOoIfvgHz+PdXxxBR/NN5fbpOhragacHEFfd/n1qdNS2Ieync9zxnV148/8eQHfLgHp2EfcvejCFC5SWXL4+sRCHzjsadMII2hENcyqymzn3mBNiGoOuv5075zhiCEdDGBwYxJEdjdj5t3vwxj+9g/azNxAaCSvxqazCd/dpg77L/L5QgOIiiu3efvogfvYnO3R9EcVFMY+BmIPri2ijB6EjBX2xGYuxJTKCBsLDUaTm+LB82wKs+swypGVn0lbkDdDnc4m5JSaGBcUd3px0sck16W3vUx3ijr7WiHd+cgQNu8+gjWKTIIlqWqF8xw9Bbmu6gcOvNuC9Z4/g6KuNOH+sGd1tvQiFw7B7yCrwACYPTEgMW+yoskD8wObkTB9q1lVh4xdXYP3nl6F6TSmSuJUFJ/QcY+6JScGXmoN1u3KXOIDvaLqJvc8ewrs/PYj61xtx5eQ1DFA8peqn7rO/x5WuvR0D9J1tJOpT2P2jvTj44lFV1M3xnsPj1HERwef9oGBLEzU4NjKQlOxFTmk2ajZUYPPX1uCRr2/AooeqkZGXSuk6h5pxTWCOiolQAbqeuDcp3/VdaTZcO9muCiie/R87cWD7UfS19as6HXVHpmggnk14utfwno+kXmZ+62juxt7n6vHMX7yKN/52L7qa+5R4nF66u8fPM87E+QSiChBo0gvsyrHl5nMcXxcNG4gMR2ALOLBgczU+94fb8Bt/8hksfaQavjSvSpO5zNwV020oSwU3+C9qM9Twvwefa8T2b+/CWz85iCun20x7xnC2IRHS270ZLZ1ZB7oGsfMf38ILf/Y6Dj1zHP03e+HwxZSQVBE3Z+ppQsWJ8Y5/poC5TxngVIIK90eQkpaGpY8twte+/Xk8+tvrUbG8CN4Ut6rb4p/EzGVBiZjG4AwUVRmDJ+6R2t3Zg0v1zTj68kns/2k9jr7SSO5gN4LDE+OpyWefuET4e5IoMxok3sBIAIEB3dmRX0pI98kKfTDxs9Kw5eTmSrFwlASTjNqH5mPDl1Zg45dWYRFZosKaXCT7ffQbJAvFkZS4Be6+QdmK79J0U7Z5YwhFgqqtWz0J6q2n9qvW6c0NrWS5BhAJ6W4i9yQo+iJfShKWbKnFys8uQvWmCmQVZMHl9tBp0PEoNplWWLxqIstM38091r3JHuRRXLRgXTU2/eYqmlajbksNfBlJqrPmGNNoQa2MiGkCys0ZyxckqJjuOu9McSDijOAaierlv3oTO773Bg69chyDXUO6VIu21v/vDt6WX063E7kl2dj6mxvwxB8/ho/97kPIrshSrmOYhPogMmmMB6EcDsEVdKFqSSU++fuP4Le//Tks//hC+PPS1HnH4bOjyIr+TbPwLYrjW9/61p+Z85ag63qvyrRtZzt11wEryJ1yjcrWdC5cpB4YCqCTx5k7fAUjI6NwedzkCnnhMEvcWC4azmrmvBJGjOIxuuvT3O2lcu4kF1mmdNSuKoe/MF1tM9wzrJoRqe9WMY2a04UCNKvcwQ9YnhR0elywwiIyRmPwODyo2VyBrV/fiFWfXoKihXnw+CiQNI8f/w7zVIjxdUyX6gpzEaMDATovirvGN7wH6OTIQqZnp2H5tkXwkKUcT2PrIWK6WzgzcYam84lSHMGC6u8ZVO5eb9sAhgf4ea0OElXShAvOGYnFxO/xyTyOOR+H90mizJKWk4q07GRk5KcjPTcVTlo/MhhCJMgt3vlv/BgKJVIuPCHMVR8FC5ybWvEOPJiKEYip7y2tK8SSX6vFsscWYf6aUmQXZ1BMR27nXR6XETFZCMuKyUQJwSykiFJm6W3tx83mLvS09SIYDKvMz89udZCw+F3tY+6n5+n1IRmMZRezxZCSkYzcsmzkV+TSfBKMsLZwBok4PExxHZ+D3oVQR4zP3h3chi7CzZHsZHU8yMnPwvy1ZVi2bSFWbFuM0sXzkJTq0b/zrg+qmctisu6ZWRh+TL+yNzE33GSJDMo03LVj19+/gx3ffQPHdzWqlhU82KPa0MyQH5WvOPOp7uW0k9NlR2ZROlZ/ZgW++F+24ZGvr0dxdT6igywEyqQ8PBdlNC7xi9m5+wUv3AV0Pg7DjlgwCrfLjdJF8/CZP/gYPveHH8eax5eRRfTT76MTVYURUxHC3GPWWaYo5SsjRBNllij38SHG+jgliPj9OkYZmA+rLAXfxTmeGozgamM7rp3Wj+pPzUqmmMql7qhsXTjz6zO5/Xz4M/6YXTZ6TfjY5XEgc146uWHFKFtWTBYqjKHeAEb66YdyAnEROp/DrxzzVrjyOULWE5Qei7bWYNOXV2HDEytQuCAXXrZEZlrbWETqmPx352Pejrh5FuKexERpzv+42/rCDfNVs5bc0mx4/R5wbM5t3sLc1i5KB+Nt+fp+SEZRGZ5Qn6lMpRY/AN7CPBj/sWBpMowogsMBDPUNK+t0o7mHRBVQbl9yqleVDk78XspvGiUGfqP3276Ti6E9XjeSM3zwF6QiszAdabnpqjRwqGcI4QCJijPuB9006PhRMnZGKIbkNC8qlxZRxlyMpY8uROVKHRe5fS7YeV/zzNQ58Lv6PzlETBbiXsSkBEB/LnJb1n9hBVZ/agkKKnPgL/IjjTKgL8WrCga8lJk5jolRhjeCERV8c/zAqIvO110vqmWevXNeuPVDlQnpfLkFg+qH1DGA9gs3MNA1hBB9n25hYCMRjMdTY6ivv+OXKVFxIQXHU1nFmUjNTCYjozNsJKxbcHPm019D50/zXEqX5PMiuygT80k8Kx5biJXblqCQXMZk//jjM+Py0RNz53P5MERMFmIqbh6F/li8uRqVq0uQNc+P4toCLFhfhdqNlShdPk81zHR7nDACBgK9Ibpj80MA6IIpAdFFZzGQNeJMz6soe5qZYfIZgjOpnQsiaN+ulgFcO9WB6xdvwKDMn0KZWDXD4e4gnJn1311/C9fq+FKTUDQ/F4s31ZCVSsHwQAiDN0ZULKQPRBYwSsIl97NsSRE2/eZKbPj1lWSNypFENxZd6coSoo3Vb+Z9po6IyUJMRUwOuxMLNlahqDZ/rIaePTWny0kZOBk5JZmoWFaCmvUVqNlUgbLlpfDnparnDwUHwxjtDZPAdKsGdntUJ7ipZAbOp/SP66a4D9XI4DBa6jvQwV08hkNkWVJVrGJnEZu73B1a6rwT/870vDSULylWdUIxVwRdF/rV+VeuKMajv7MZG760CiWLi+BL83EiqX3195H1UjeSqf3MiYiYLEQixTSWUejuzIJyJblUkW9Kpg/pOWnIKspAbnkW3eHzMW9BEQqq8pFdmknxiUs9aSM0EKFYg1xCVSrHo6DyHXyymYP2ISFxCWA0ElPdLUYGR9Hb2kei6sHw4JB6gJebvtNJcdVdE4/n6Hy4gMOXloS0nGT1m3LmZamuEYu2VKNqVSkyyEqruGisqJsTht75GDSvK5Ljn00NEZOFSLRlUpn5tgvKvW1VBiRXKSMvnQSVTTFEHvKr8pBTlkV3+lSk+inWSktGSkaKyuh8CC4NU82HOBYx8yNPEzMhW7VblwmzBI/dRxVPhSPo6xhE58Uu9N3sQ3jUUPEbD6jJrQ1+VbTxLzOPp0RAU3wbWsltCZN8HmQVZKKgOgelS+bR78mBN53iIt5O/9Fk7jP2zofT5zzxvO8VEZOFSKSYVB6acC15VmeYWy8wxzdcMub1J1Gg7kcZuUQ16ysxf0M5ihcXKnHxRQwNUYzFpe1RrvDUmVA15eGYIxaPs1R2H8tEXHOkxBGv0qPVaomOx0Ny8Ui01491oPtarxr3LyMnXZ27On+Opwh9REYXiqgwSx3HnNS8XuLv4qZJ/HtUF/3bPlfL8SVeT//o28w1U2cui8m6Z/YAIG2o68eC4EpTf3YKCasQ6z63DF/4o8fwb578DXztu1/AY9/cjEVbq+DLTEZ01I7wYJSsC1mtIGUcuvjKcpiTPUZWjcdMUNbkVlgsPMhL2BPB1YtteOsHh/H0H7+E+jfOoKd9QG3DhQ3j+5L1MucE6zEH3LxJwGqiO6l6Uf5VFoviGL7Tcxs1rudJy0mhuMSPwvm5KKsrRnkduVM0n5KbgphT12lFSFhcTB1jf5COoW7OSqkmallP6s5NfzwmeCgQwnD/iLJS/Eyl4YERckV9KqbionTehY/C52dVxM2zEA9UTHTx9KXn/+NzKvtSpmC3iYXFneIyC7WgOC7hQoysonTlDvqz6T0rlbZJgjPJgRhXmEYMGGESV4SlQOfFMYo68NjR9Wpaz5W+vWSVutv61BgUI31B2j+sKn1dSeS6sftn7mdFREwW4sGLaXw/zrRj9mSim2ZaGS5QYHGlZaUgvzwHVctLUbO2EhXLikhkGeQGJgEhEhQ3LI2SwxZlQTrpmBxr0TFMV1DVbanj8btd/e5IKEwWqg9n9zZhoGdAFTBwZ0InN02aEE9ZDRGThXiQYtJZ+lZ4nXrRR2OT+bodzjh8sb1pSWS5MineKkbd1hoseqgG5UuLkTEvDXYXMNofRqAvDIPcQW2S6J32Vcckoer+SbTkIGnRNNQ9ipYTbWhpvIYIvbLy/fB4ddcI1qQiLnB6ja0y36cTEZOFeLCWaepw5uHv5lhL1WtRrOVLT0IauYDcXrBkUSEql5SgcmkJuYk58KQ4VTdxY9RAZISkEgwrQbDlURnRTp+RVeMhx/hRozev9qCzuVtZLi7aT6JpYn7lfScy3YISMVmImS6mD4JbQCT53KoFObeRyyvNQl5lNnLLsuAvSENGPk156UjLToUv3l6OXEOOs3hQE5WpiEgoisGbI+hp78dg9whZuABCJDKOp8bb+03MvOy2Tq+cREwWYjaJibMRy0BnJz3HL7vLThnDrUoGi6rzVROn8pXFKF5UQALLUcLgYgau/+EE4OZGDO/rcLiVqDqbutFy8jpZqptwJjlVi3knTQ6XkzakLSe4fdPJXBaTdc9slmDjSlv1rkvhOMZRBRD84nmaHCQubgE+r7YQyx5dgM/9x4/jt77zBL76nc/jiT/5FFZ+aimyyzLATZKM4TDCowHSmIFQKICmYy146bu78dJfv4mGXacR4uHCyKrxd023kOY6YpnuM3GbEodv1PGMrubVxPO61QO7atzUiZsVpWT4kEkuYEFlLsoozpq/qgIVS4uRWZgKl9eBMFmoYF8IwZEgRnpH0Xm5Ww34z3VWXoqleBqH5ctv+nvvF+LmWYjZFzPdW2bi83e5neYgKynImpeBXIq1uB0hdy/h/kw5xRnILsxCRpEfMYqz+DlO7Zc7Mdg2QjHVEIKBsGpXyB0LdVE6CYrcPxby/ULcPMGyaLeQbhROG7xpHviL0jF/TQXWf2ElPvG7W/DpP/w1fOL3tmLdF5ejelMZcsr8uHmxC4dfOIH3fnEUZ99vRkdTF4b7R9UotaZ9Eu4DIiaLo+qKVeUuXSp6H79g3DjXDT+5geVLCvHwl9fgq//tc/i3f/c1fOMffx2bfme16lrxxt+/jRe+/Soa3zqLoZ5hcHdF4f4gYpoBKC2pifv+GtBjI9HFo3XsvnHRO5focYyUkZ+KwtpcrHxsMR7/d1vx63/6ODZ/Za0q6Ws+fg3nDzdTrKUHmhESi4jJ4rBh+rApjp4nUZGwuLKYe+9mU4xVvmQeFm6ej6p15Sicn4e03DSKwXR/KSHxiJgszkTxcMEBj3PxqwUIH16kwALjZydx58eqFSWqBYbD6TQ/FRKJiGlOwaKj14cpT5gSIiZBSBAiJkFIECImQUgQIiZBSBAiJkFIECImQUgQIiZBSBAiJkFIECImQUgQIiZBSBAiJkFIECImQUgQIiZBSBAiJkFIECImQUgQIiZBSBAiJkFIECImQUgQIibLo0e60+MRjc8J1kPEZGliiMZYTFpE8ZdgTURMFoafeWYEIgA/dVCt4Ce6yyWzKnJlrIyNLpDLidYLN8aevj7hwaCCxRAxWRj1dAwnP9/WUA806LzSZX4iWBERk8VhS5Qzz4+R3mFcrG9RT5fgx3YK1kPEZHF4DNcUfzJS/SkID4VwYs85DA+M0idmcYR4fZZBxGRxWCs8OH9+VQ4yC9Nx6IUGNB29iv7uYfWAdVuUBcVbiaoeNCKmGQBboOQMn3rYWUZeKhp3X0DzkasYGQqw6VITP8JMeLCImCyOloi2PGyZNn91FVob23CS3L3WC+2IRA1x9SyCiMnixBBVL7ZO/BjKogVFKF1XhOazbXj3qaMY7htG1DBIdKKoB42IyeLwUyvij5Hh2MnpcWL1tjrkFWah5Wgr3vzBPvS1D5CgtJhUoYT5EqYXEZPlUTJSL8Zus2FebQHmrypFcmoSjr10Dsd3nUbXtR71+TgSQ003IqaZBmmEH7dZvaEM89eWobe5HwdeOI5zhy5jsHfYFJ0I6UEgYpqhFMzPRfXGMqRX+NBxoQNHdp5A474L6jMlJfLypGBiehExzVAcLgfy5+fhoa+uQ3JKGlqPduL4i6fR+PZ5BIaDpChSEk/CtCFimqHY6Mql5aagbmstihblAU4bWk6148DzDbh2thOjA0Fx9qYZEdMMhW2Ox+dGQWU2ardWIKsyA0N9Qzi99wIa3jiDjqYuhEcjelt2+dSccD8RMc1AVDPXGNkdmlxuJ9Z/YjmKKwvI94sh6gjh3R8fQCMJqq9Nd9vgTXUMxQXm0kj2fiFimuHEbDYk5ySjakMpKlaUwBi1weaLov7tM9i//RgGbwwDRlQ/YV38vvuKiGkGwq0dTMOkBOL0OFC+tBjVa8qVpeJ+UH2dfTjz/kUceIEE1TuiKnVFS/cXEdMMhQVlakmRU5KJyhWlKF5QAIfNgWjEwI2WGziwox5NR1ow2DOEWJQjpw+SlERUiUDENAOJt4iYKCaX20FCyscjv7Uebo8b0VgU4XAYXa3d2POjfWg5cQ2RILfhGxcTS4gjKN30SAQ1VURMswifPwnFy/NRvqxIdSa0c/k5/XWc78Khl07gzP4LpnA0cTHyIC3iBE4dEdMsgSXCFbmp2SlY+omFyCrKIFePVtIVDkciaDp2Fcd3ncUFcvl4TImJtiguKmFqiJhmFTa43W7UbKjEvIVF8KUlI2aQY+cGBrsHcfFwC46+cgodzV0IjoT0LqQo6b6RGERMs4S4dbE77MjMz0DNxnKUkrsXDZBUSCtOrxP9NwZwbOcp1L9+Gj3X+1WBBBeZS8yUGERMswZdIRuPiapWlKFmbZUSUczgkWGjsDtjMEJBvPfTozj91kX0XutX2+rBLfUR1Lvo6p4QMc0axkv4WAspfh9K6wqxaGs1HDYnBU50sckMxewxjAwO4tiuRjTsPov+m0OqZYSOmcz/+k2YJCKmWQWrgCZSk8NpR15FJlY8tkAVSjicDlpNnzlscCTZce1CGxrfOYvz7zchMMhj8d1abyVMHhHTLCQeB6VlJaN6TRlKluYjKcODqNklg7u/s8t37Xwr9v3sINou3kBw2CyQMFHunp4V7hIR0yxBD7timEtxbPD6krDxsyuRm5sNY1RLhOMn/iwSiqLjSjd2Pvk2Ws91wAjr/XXsJUyWWS2meDA+F9Dx0vjljMdPTrcTJXVFqFpbgpySDESCEUoYLSr+HwpEcPX0NRx66TguHbui1uo9hckya8U01+6sWjy3i4Dk5bAjhd29DRUoX1qkO+Cqy07bKncQCI4EcWbfJZzcfQ5tFzrUo2yk7mnyzB4x8bWniW+6aqJFucPqtGAq6kpRvbISKf4UEpSLJrtKH5s9BmeSC73tg2h8+yIOv9KA4YER1VBWBDU5ZpVlsgXp8ocnPBtM8sIYLp8T8+oKsOLxxZRGIYqPOHHo8puFEk4f0NvRi+OvncfBl+vR3zVEa+VmNBlmvJi4jiQaJD8/6MCCR+cjtzoLThfddTmPyIAiKg1UdERXOrs4A4u31MBf4lft+GKRKGwGW3F6t2u3b6BrAAeeOoFT71xEd1ufeRDhbpgBYqKswJogt0TNmy/1CT8BgixRmj+VMkk1Vn56MfIqs2B3yh31g/ClJaGoJg91W+YjJcOHaJjHKVeJq10+SjcjGkH7xRs4vvM0LhxoVsMva+TG9FFYXkymbOiPm7zwEvlw+vorMfmSfaqH6bZ/vwkLN1YiPStVZwx1oxVRqbQwX5wovnQv1n9mBQrKM2F3UWqq1Q5llTjN7E47HH4bzr3XhIbXzuDqyeuqyFyPH0EvfUGED8DyYlLZQCmDA2J23zgHcE9Sck0cMaz/4lI8/s1HUFCdD6ebPhPuCKcRp1X1hkrkV+fqlZSeug88wYKy2+FMs+HC8cvY/cODGGgbghGk9FbXQm8m/CozwM0zYd/f4CkKJ909Mwuy8Il/vRUrttXBPy+N7rIOudB3AacRx0s16ytRsaQEdhJRLMYdn241OVykHjEiaLvciZ3/5x1cv9CBUCAk1ukOzIiYSft09GfY4PI4kV+ZjXWfX4FV25agoCoPziSn3lS4a3LLslG+rBj5Vdlk5WOIqvEhJkCi4466I4PDaHz7HBrePE2xVKe6mQkfjEXFxFdSmxl9J4yqhphOjwu55dmoe6QWW7++DjllWXCxkCgfiFG6e9iyeJM9KF5YgEUPV8PpIPf4Ni0pKFH5YdSjAyM4srMRp/ZeRF/noHgAH4IFxcRXyq4CYXXVyBoZgRhCg0HkVPmx6aurseUra+Hxuci311dVLu7k4PTim1ROSRbqHl6AzMp0uilRHBqNqhsXx0/6Paaugz3FhoH2IRx77Qze33HMPIo+hr7ZmSvmOBYVE1uiEF2tKPjN6/Oh7tdqsO1fbcHCDVXqkSoioKlig8PtRGahHxs+vxLpaRmIjvBavolxUTm3kNDZI2Y3ADfQc70Pp/dcwL5nD2Ggmyt1NfGyi7mOBcVE0NWx0Y3RGInBn5WGBQ9V4qHfWI3qtRXw56brCkZhynApqTfVi8WbalC4MA++DK9ql6fhNDbTma+HgwdmCePGlW4c3N6Ay/UtGDQFJVdDY0Exkc/AbkPIjuTUFBJQGdY9sRTLHl2M5HSf3kSYEuyWxQWgCnTKs1D9UClyqzIRM+LdOHgj7b/ZYqQkwuGyIRQKofnYdRx74yyunupAaCQsYjKxpJiikQhGu0NY9UQdtnxjHRZsrI5/QhlBfPQpw2afUlOJwEzLZVsWoGpZie7TxDGT6tNk0CwtqyZJenwJG/fUpXva0ZdPov7VM2i71KUPIFhPTHwBc0pT8aW//CTWfXYp8suyVZ0Ho/x4ck0kXpoaOhbSiRhPy+SMZDW88sJN8xEeCoGrnlR6q2ZcvB2nu057m90OuzeGM/vPYu9TB9B54SbCAd6BlckWjd7YmM2x62QpMfGlyMrPQO2GKqz+fB3y5+cgKdmjPxTuKw63A0W1Bah7uJbiKI+OS1XJQlwR5ju9sai4lG+oZxgXDjVj/3NH0NPaCyNkjImTmyiR9PTCHMFylimrKBNVKyqQU5Gp+tmIRzd9+PPTUbWyHGVLi+HxelTd3ofBouFWJ1yqd+Dl4zh34DJ62/thRMwSDGXRREwPEK7XIJ+cuweIiqYddqf9hX5s/q2NSMtIhxH88IsQ47jLSfGUy0AwFMKenxzEmfcuITgU0J8jTNNY0eCcwHKWiWHvgifd01NUNR2wDeEpKdmNypXFqFgzD2l5yYgEwurzcbgYgkQUpbiJAiNuFMvu3FDPABp2ncbxXecQpc+0izi3sJSY4skfv7DMXPO7HzQO8gxS/F4s2FiBouoc1bhYdSBUrgJPdD1UQcSEq0V/qlFsUyeuNLZipH9UbT/Za6dLauk71N1UdwuJqZJEwuAFtZllsZhl4uTXl0BP/F+YPsyMS/8rlpWgjKbU7DREQ7SWO2Kqzz74unCBxehwQPXU5bZ8ShSTuXy3WzLTPVFj/LnICpILOi5ga2JJN094UOhbGcvGn5uG6rWVqNkwH8FhgywUF5PfOTOronMuBTQreycF7aP2Z8Hw/ro/vXpwm48spTvNo+q4rIyISVAoL85EP/wMKKzKRd2WaqQX+OBw83pa+xGCSgj0NXpATQdqN1arHgLeFPdYfaNVETEJGtIIt3HgcWHjda++VK8eM+LRBfC4vYgGo7TdfS6h4++mr3BHXFj68EKs2rYYJXWFqm0gnyN/bFVETMIETBUpbGrwf39eKlZ+aglyCjPhcjrHCwjGSGD2pkNxJ0V3kgeVy8qw9tNLUL2uHMnpXnMDayNiEhQsDy7s5uJuFbaYevGlebFwXSWq1s5Den4aYmHKMjHu2az7PClxJQISKNtFu8OBnNJsbPvPW1C1rgTJFC8xOprT52lVREzCHeAoSYtlyccWYV5lEYwhdvU4nuECAy5hS0QWom+xRxAN21C9ugrbfm8rCivz4PZSoDaDEDEJd0DbAZZTflUuylfNQ35NFiLBkBpmLSHQYWJccDdqw+JN1Vj7qcXqafFur0dVCM8kREzCR8Ky8aZ7UEFiqtlYAXuEsg2vnKqeaH8ess1pc6FicQnWfLIO1evLVaXxTETEJNwBrZZ4tVFRbSFZjwXwp/sp49h1r9wpFJXzYC12w4Gs7Axs+/3NqN1chbTsVPVZPGabSYiYhDugw35VIEEvl9uBnPJMrP7KEriT3DBCrKbJZSGOwaLk1/FkDMVQThbp8f/wMEqXliApJcncamYiYhLuGm6dkJ6bjGWPLURBTT6SUj0kDQ54JmdG2KJFhmOofWg+Vn9hGSrWlZKQKEayeKXsRyFiEiaFx+dBYXWu6sCZme/XFbl3C7mLsXAMjpgTxQuKsPzxxViwpQJpOSm6GdIMR8QkTAoOn2x2B5ZvrUVJZSHFPE4zdlIf3xEVI0UdyMjIwKavr8HihyuRWZB+S1OmmYyISZgUbD/s5O5lU+xUtbkEJSvyERmhGIgHsLyDovhzYzCGgso8PPLNDVj2SC3SVWED7XMvDWMtiIhJmDRcIOF0O1C+tJjcvQo4XVxIoQsrFBxDjcVRMWWRjP4YKlaUYPVnl2AxxUrJaV4zRhrba8YjYhLuGR4Nlvs9lS4ugtPuQpQfpsGYQ4kxPI4Ej3A0b0EBlm1biEVbq5Vrd2thw+yQk4hJuCfYpePicXbbVn16GZKSfbolAwVA8bH2VIwUcyA9MwPrvrxClQLmV2SbR5h9iJiEScMFBtzfiLtrpOemYvnHFyC/NgOeFKfq5h6L2lTrb2Mghpy8LGz9+hqs/OQiZHBhg3mM2YiISZg8ZHXYdeNoh0eT8qZ7sfwTdcgtyVFPLEHEpuqRypcXY+0Ty7D00Vqk+JNnfD3SRyFiEu6Jia3FeQDLmjWVKFlUCG+KF9EhIK88F3UkorqP1SCrOEP1jZrtiJiESRMvt4v/5+dk5ZZkoHJ1ieoVm5ySguWfXIglH6tFflWO2ofRW89ebKOjo7PZjRWmCe7YN9A1hJZT7WhuaMPmL69Aek7qrHftJiJiEhICF0oYEQOjQwGM9AeRWZiuGsbOJURMQkKIt37QbpweLmz2VMfeHRIzCQkkLqk4c+s+LWISEoIulNDF5fHluJ2aK4iYBCFBiJgEIUGImAQhQYiYBCFBiJgEIUGImAQhQYiYBCFBiJgEIUGImAQhQYiYBCFBiJgEISEA/x+2pUV1qzKIxwAAAABJRU5ErkJggg==;" vertex="1" parent="1">
          <mxGeometry x="173.71" y="286" width="40.58" height="40" as="geometry" />
        </mxCell>
        <mxCell id="nZfVPGNK5ss3Tm6Llg2C-4" value="Review, Trace Analysis, Impact Assessment -&amp;nbsp; Modern Requirements" style="text;html=1;strokeColor=none;fillColor=none;align=center;verticalAlign=middle;whiteSpace=wrap;rounded=0;fontSize=8;" vertex="1" parent="1">
          <mxGeometry x="120" y="326" width="160" height="34" as="geometry" />
        </mxCell>
        <mxCell id="nZfVPGNK5ss3Tm6Llg2C-5" value="" style="shape=image;verticalLabelPosition=bottom;labelBackgroundColor=default;verticalAlign=top;aspect=fixed;imageAspect=0;image=data:image/png,iVBORw0KGgoAAAANSUhEUgAAAQAAAADcCAYAAACf+X+GAAAAAXNSR0IArs4c6QAAAARnQU1BAACxjwv8YQUAAAAJcEhZcwAAFiUAABYlAUlSJPAAAIawSURBVHhe7b1ps2TZdR227nxzznxTTV3VA3oEGhNBgCIIDiApAiGSokQzJMu0JdkOOezwJ3+yI8QPtH+AHWFHOEIfZCvksGVLlkwJJMUJIAliIEHMaAA9D+jq7uqu8Q053Nlr7ZtZXd1dXe++Zj1Uv5e5q87L6d6beffZw9r77HOOM51OK6xoRStaSnLnjyta0YqWkFYGYEUrWmJaGYAVrWiJaWUAVrSiJaaVAVjRipaYVgZgRStaYloZgBWtaImpeR1AyVbMH9VE3rw59uo6FXxdvem9ZSGX3HQX/HnX050rAalcx2Sk4k9Qc8Q3vm9ioz83/rTrH6zodtPBDIC1kv9rCXc819qiwyr9Y286fO2oR1f0riYp3p0iE6X590t8HP6jNNk//b9O9YcrOiRqbAAqpAQA0/o5z7DuctRlnj2n2luHVuzZwEz2khJvvVwJ7L5UFiUqNpdIwJUPkcNQqwrKEoWIz2s26m+HbYll6hCpsQEoaQByTPisNsm14gv/10agjgXqTw0CN7rqMSQyoFjJ6r7kST5qIEmB0QvGl47eUJy5iDUXQtRlq+VrRbeXDmAAQAMgon2mq6/YZAZ8mm8a8dftM69W0gKU86OXjcwA1k9XdAtyqrDWc5EkkM0EkXquEFLyJimqGG76Hp2N3lzRbacDhABs844q2XEWBrBP/BslXvi/KJCzbxcAbtnIMFEjjr4b6E7+UApNNRccio3kyVyK3qLo6JfZe2zUf5O1Fd1+OlgS8EaLvVB8wTZHH9DjlzmKPIPj99mRPt9bPrLcZzOO3lm607/Ry1A5Mz5R/kjGQFruU6z4mr9NTb/RxGxuFFZ0+6m5ASio6KlgPR899sbC1V2P2wjX+C+vMgTFWt2hy0gLw7iiW1LuzpBhj2IUGMtuzCdJ+TXQJEDpVA6CgMesIMChUHMDoN6gcpuEO+wkNqm+bIJF+xR6WWpdLGbzzIQvH6kGQlw6CiSDfaeopMBIfvQLKgqQ1Nun/IRseu5SqhzKnKm9E+iPnq3oNlNzAzAXl6J0MJlV2B1nuHw1wcUrU4x5ibyK4AVtNiV3xjz8qKjB7aUjZfbuoJF23Tb/RkimuyiyPURBidEgxKnNHtZHMbr8OLAoUjBgBakOi5zJZFwpw6IEjOTBdRjDC76XNdMrZ49HxcgZn01oqV++UOC587t48ZUxXnktwSUagas7GdLMITCIEUVdpGVKCLdIGLx76TB8iiIiv6Fi6agmR9rvvO26WhdtNaYGzNL1Xi8EU52InuiD+Wf2xL4ZvsF6YLKzTYcxQ6ftYnOjhbNnh3jPPSPcc1cPpxlJDmkIfMcwJokWwX6yKgVKhhGOIQlJaiiEqg+JTFfUnJy98bWqcgXnfWR02lFwGX5Grmct67zM+z7D+dOYYoDndoB//ZmX8Qd/8hyefDFH7m+iMzyBtEoxS8d0+gmttk/boQSPOuTOkGSuicCqXqFpxr7p3ehrnYaKVWdNmhCPavg7m5LB66qZkVZhU5Ovl5KXeUKmevApB2ou48KS31UUhRX/FIshJHl3ZUx3cnheD3Hcop9xkMdT3Hsuxk9+6C783AcG+Nh9wEmPRoIOqSp7db6ZBiFxZtgOQyQIQUnFRq6EoqyvkMWKmpIzJQIoaa0l4AX7I3CuoEp8OElf/Yiic5GefxPffBL4rT9+Bt998jKePp9he9aC21pD0OsiLydIaADybAaVBzk60ezynSHVJzQhU9b66b608F77k7BUM3NhlZPNLlorze0kXk9GoAlZzf78+a1JNSKFKf2iqS90jwt0oCaiKaDxrRCVRAJVgBYxf2erj87pDvxwDxutDPcREXzo3Dp+4oESZzouYvFVXirwUHguxvxdGY1Yh+jUnU1N4vx4ZQAOQjQAUxODOo9PKCUDUHio0j67zTEg8NjTKf7951/DZ/74BexOPYzzNpEBP4giOBH9WDWhhU9Q5ewcugvXoTU3E3+HqKlWH4BqQNNEDXRMQ3WRQjQ41m5nrji3kxbKePtICi5Jqq9749XrLpl3DB+UJPZoAX26jDiO0dscoX1qiGirxRByF24+Rpee/mSvhU88uo6P3wM80OO5OdEAvXzlBmZAnYKKL2Og7CtNQIeoY0XNyZmObzQAJQL3KtlIGF/0MCPsusIP/vXvvoLP/NF5fPc5dlzYgcNW+C4KN2UbM5ZLaM0FKdkJNB6uQBmt8lGgRrMWKWiupK0RUQmahj92yQbX1fffZmXV1QjK6xf7kDyr1TfsQzqkVEpfE8YoD6oW1T+hgOv5gDmpFDjg68D3sLa1jt6JEfw1Kn/kUKYKGly2lA4lSfDI3Rv49Ps8/MQ5YDNmHOpGNARB7bE05sLjd32NPbmQjVhRc5LeWudaOa8JrnqJneeV9PIg3Ae++I2L+N4LE4S90wi6W3AJs5QnzMoZ0myMgnGflQaXIRWFoQE/VAe/25sJdoOm45q2OgHWrFkJjH7HPk3e8mbf9VdrUkz+jobt5td4YyNurA2lfi9Fqf7tRIR8dDSwrwlAeYEqK5AXGXLKWDii9z/VRzQKwMgeezvXUKYVQl+hwBCzYoAnXi7wpacSfOPlFFO3a9fHbAJMGfcXAa+pUKP+DSs6GDnXro4rQShPQ63sAhczWu8UmRPhWtbBv/idKf7NZ5/HE+dTeK2hwS6z7k5GGJZQkFOeQ2EqNPxHK1y04Hkzxn+LzO27l2TuGiEAkieIxPvcjypa07KJuyQ5c2VpQg0v2ZjkmQvLqO1PpsANv79kCCBvb42vdVpFedH8ESGD+jW/nU48Wu/g7vvvRrsXI5fMMYT09c+NGYZKsevOUWLfqS7g/ecc/PrPnsCDwQwKUEGHU9HZUExREgUolR3w34qak7O9u1e5LmE7zSdB/Vwr9jAl71/ZG+C//5+ewF88meFK6lk9RpbXkqBlAGQ0PGpGWbBD85BGoE2hpoVmGOFYmecPnw4S1zZPbkkJeGSTg2UA5k/3IxstaPQDhK7mT28TGThvaAD0GxvZSd1OmdsaER5lyiGs1C2WGgEQ1ORzSw7y83C9hfaZAfobQxsRKPOcRrZi3B8iqEK+dpEr8085K4kMZvzXbxf44F0O/t4H+3h44CHieQl/mCpZ2mGCUJbKytBW1JRc12fHkMlinSUCGMMDhPL8m6YJnnn2Iq5up/Ucd9UIzCu0XGqPEjgeLbAgv2MTOwjFZElMCe7MP/PADf/JM9UVjvu3kpIs/7VvMwPEcxo0ff9NrvDWZt99e//piqadDZt57f0ar5kzdteCMde/hYigoFGwuhAahDAK0el2sLGxhrX1AVKGApM0tREoKwemg/EZKoR8GoSl5ZmI9+EHbSLSLr785BR/xnDg6V1gjzKZ8FPlHT1bhkqyu6KDEG1mzm4inGcHlPLuMgJVjJC4S4OD490cexN2UJEzLqPl9gmy3IAn0vxmtPAZj1f8r2INhgSlM649y43B7g+xVTd571at6T/9b9IEfRWRNmn6fkMhDZoOv+2NPd+kyahWlJT9WkmYQnW3R3tOzcyo4Inifb7vUH5a3RaGa0OMhj30wwAFlV8KrOIzOZJ0SmNBWXMDGqiYxsGjpvtEB/y9vhsi8U7jt752FV/4AXCeIDOZTXidjJ9rCuoK/h+UnIvTl8n2iP/aSqbS7bMpgR9M8IOdEP/pf/M4vneF0VXsUfGV4Q1oKDxzjCrI8DyiAoUBfFnQjKdZhSAQ/BMiuEMka9aATA+aHWrerAkJ1jeuA7C/DX9Aw3s6CCnT3oSuG6F9SCigpLdXAZDVgvAn53nKVr/X6XSxtbWF9fU1+CEV3UtQ9TqY0BymSQkvK9Al7Ffl39SdYtedYULlH1WUzSziNfvwGWFe3QFO+i/i0w8n+M9+Ygttr6Ih6SGnzEWrCOBA5Eb05D7hu+L4QghAyu+VSIkCJhlBfiunQkcG3xLvFVpydpzFWbS4RA55sc1OlwXmdTwt3cTO5/WkWM0aFeY2NzqjRk3fb4rVoN3se27WajLT0qCJbvb+m5ou27jxT9OmGvsmjdrvMAa8ZaMtcfkY5D5CeuKwpBMgMswyehQqaNyLMTw5QPdkF27fQx459DUMKNMCbkoZo+EQ4szpTBJ2TkE58imDnbyDKFVeQL93jBmvmdNwXMnb+O6FNXz2+x08f6mFKaFo6DMgoCzKsCo0mPBJkhEmVHt8n0iiSii9AO2HPa6IfeYTOnk0AhrDJ4vZWewwV0ykElP2tk5EjMcKzGYzZBWVX2O0NBIOMZmgoUhlnrmmC/Mc17KwFAgJzb6Nh1p2eP9WKxiv3KTpl/Bxv2bXtF976yaqn+v4/VtTuulvf9vGazdo9vU34d9bGv83bjqe/atEpHI/18MY9SHfs6b3afgjCofi8TInKsyUMwKiVozuqIPOWhdBJ0DuMzSgXcmJErKMISiPc1VByAspVGBAyrM8GhLi0rJFo1IPLSsZmBdXEAYa++/ipas9/MljBb513sFVXVApAI1C8EHYRoMIpuiGdCSfbLw0AYnZvxWRjeKa67LTyDw/FOvEmcKKNEZt4EOPnEE/GiPd3qEBPW1GIeBrL5qRiUQBzhoRQEDoP0OS7LATKYjWBSs6LqRluWTkBfEtx0FUoHZjN+t9z6P5j3zk9OazZIqU8D+K6flHA/T7AwSK+XmdjApvcwIaUsXYv9CQX+FTLkN0o67F/Nt7KZ45fw3ffWEPz10NsM0wQfIsgyQ3JBl2gphmo0WpbvFCHnwihLZK1lWXsCIBe5VvkDdkljXLejO2J9va5OKPfbCPR+52MQgJrdOTKDKGB+U28mpMx+BhPKaljmnZGfen6R7RQsCLrgzAu56ozE3/aWRDyq9zpPRSdnkCM/Tq6nl327FsWUFPTUXzKRPD9SFG6+vo9Ki09DJ5QR9P5VfhWBOSO9EAU04nkyvpnDqI+bpDZ+V6bVyZefj2Swk++909fP0HPMGRkaFg58SwMjREGIUXYo/OaqqEdZYgZghRF72tyPvH//g3ftNQIV+oX11l8wWg7HmImIZzb5Lj2rUCFy4GiMOCij5lB3r8bFBnf6spO9tBp9Umf3kxw9d2/QbUTBBqm9Lsojqq6ddLaJuQKUDDY5uSXbLp/d/m7z4IWQhChmpcvy7wmT/WnWK8keMw715pSI8IshWiN+pjY2sT3QHjfhqDXKEij/M8JQl5bs2AfYjf41KprUfpmNySnl2jUHXAJVc1pQBfnuY24tCLQgx6dGvE+UE5s+HEnLKqYYQ84+8jMom06giNguU3lpxsGmBdpanEC5+Iz+pYdqJfZVhjGPAxTcb48BrOrBE6panFZL7TIg9LxL2CHZ5YX0Zhjxebe4vbTPUV9bdBk0A2+vfWU2/WDuF25nRoF76t5NJze8rsU2Hkua0SlP/MCEiRSTW0T5HkM7iRhw6Vfm1jHb0h0WEU2J0WOo9P6v0kmiqfBqqpr0FpiitYn6cMSdMZ5TVHxZBj4ke4kPj4xksZ/uj7u3hhF0gYLpiJKCmvPD7g97pEp5XHMMGr5w2saG4AaqWl+ivJZxZAQzhkEGGcGPeg5md/bAM//mEfbUL/vtdHN+ijyHfhRXu07jyXoGE2lXVXfGjXvr3E3yHhadTmp+xPtRHYr9XU7NiDtOZ0sKNvN3m+h8Cv1+VTPsA29aDMiOw9/ZMD4WdChFEnwmCtj/7aAGErZmipgVEZDRkMypUcTGNSWKEZfznCyEUYUGSp1AnDzVm2h9xNgJDePOzgpXGAzz21hz9/Frg443eoNoCoICgTBEVK9MrwoddB6kTQFPgVsW9/47/9x7+pIVvXp3Unz9RJqu6r0ygu+ZfS+lYYDmOcOjXEpZcn2FMVVjJDUu1hnF5hKNCnAISY7DK+Un0mMWNzkb39wi3xaiRiTb+ax72u/reRZK0a0kFUpjk1+36V9SrpJ2RnFX181JmLEGBxGY0MtUYx4/4BPf/Q5vhrD0CFBBZiWhmwN79tuZpm318xLOVV9IyPJqR2XTlx/YQaoQhlBKAI4pWXzqNLFLLea6Hfobf3+buVC1BpMY8d8xjaESsuWnaiAfjvftOMIS23WFzacI5WatWbShCyo3zGXWTioO3j1MkNnL9wEa9euYIqaNEKq4YgsDqAkJ4iz6dmSATzmlEzIdBxTY5UnzbtV7teg4vWhzT9nYdDhyKrTW9JWmbKX0N49YTF/UKO/FjGQSGChvvWTg8Z8/foFCJTTKm+zQPgNaw4iJcqzALUMxybEa+iMFXDi6VCkZBIM7ANQ3xdl79DST/VrsqR7ezs4OrOHpy4hdOnY5qFyI4Toi3SnKEEz+WX661lJ7JBttlU3zpTyRa90tvkFzRRSJY6QIJhmOBH3gd84uMjPPCejk3b9KoNHti2BE9RTdnJdbrmTlEtWjc8uVVbUSPSRJ08ywz+L5RGyp/zfY33Kw8QEYZ3ux16/xE6PS0OK+VXfQg9r8X+Zjbqkw/IfEvYl5RCOpo8D5Gx5Yzxq4IKz8/CgmFHViDKU4RVBica4flpG1/8QY4/fhq4zK8r/ZBKr8HAFJGbUfBXAiCqS/bIDPVr3bc1azQ5g6iJb8oA1If5DAdifwc/9fF1fPLjd2Gz46KDLmK3awIxnu3CURmwp3JCQUZemU0Q0leBSMUOU26B36CSD1WO3266bnwWN3Sr1pBqqKp2FKjp7+RxDXmhYTuN7VscL0U2hX59E0/lCGJCbXn+dqeNQDG5R2Q4V3wJwXXEIG/NLzQo36iJlFfS8DKvy+eSyyQtkVHpNX9Fg07CrB4NANI9/o4R3N4ZPH4R+MxfXMDT28C2hgCV+dcIQDGx3yTSPZQ0Gro3/jRDGvOPSLI8UoLjS850Mqm1n38W971guxhRW3xxhk/I9En2BNBp4dXtEb74FyH+53/yGHawhik7feyOMSNS6DtDWm0HWUFEQCVf763DY6iQTROytOBx29hztvmsRL9as+/an+Q/rvfMLWnx+/clXe713r4lmbA3OLbZ1Wpq/DtFDX+nhNZqOfahul8Xv0AKOn+6oBveyKkzstta3CObThnyFbaST9xuwQ19tPsdjDY3MNpaY+9rYtlBuNCEdL3Fb13I6Vxs56TneTVD4cxohE5iTB2fMBQIix189ME+fvnHBvjIGWBDla7JZXqzU6paR+5MMSu2GU4MUOQtm9wW1/aLF93VVXntkb7iWJL3G7/xG7+5YK7+voGp11/Mn/AN31NVFWMoxny9YQebJ7bw3POv4bXLEwRxl0aWHFR5JzvDCQqELQ+zyR6yNKHtJs953qxMbQMNzw0I2TRc8/p3v10T3ez9m7XDoQMIdUMFuJ5Eu620v/KLXjcAbzarb/7t9LAWBtJxEgFa3O0KJcokVuiv9bFOGWgNOrZAp3Xybac38kmv3vhOTfW6FgHGNFIKZsPIs3g/HU+hWcURPxt2fcS2jqVHQ8Z7pbH0iQyUV1DeSoqvJv7o/iqhVkMex5PmBqABzblegYyqAnheSUtb2FyBq9cKXLk2xfbejMdIYAinnJQWObEMrsqEa0brIhUFhaxlSOAQ1vkH0Ks7SvrN86e3jRoagHmU1ohqdW5yMEG49Sfp+uHzJze81lPbw5/HalGU+hz2se8i7raxfnILPRoBJ6KiaUIPjUOzu7r9ZGFCFSLJxgxDc4YiDkLG/snExXRnxnAhQ9RyMVzvMCTNiGj4exWaui2zmypjrz2/7poGjspf0UF5jRPaR48a35mida3xk5E3mjsQkSkdN8GZIfA3PnkSP/2xIQb+VdD8krEllPDVQhA7ezuEjyVUf1G5mhs+kejxGK0fGJqANWmim73/V2mLv03IjpRnb9Ka0s3OvUk7yD+eYP/3bfyjy9fPRXzypteLzzXJSDhNez4UeZ3Ui9ptbJ3aQn99wLjaU0kOHIYFd5IqwcqcXj+QN89h6w4yFC0J71+66uPrz4zx5ad28KyiAOW2iGYcGgAJt8OwxiFqdUHjgQnfymgAiBJsSPz4UmMDoJnCU6HLQDJBDhaESxkt/84eHn0P8Kmf7uNnPjZCJ5sg2x2bgve6m+S0hmbaNABUdrr7NNcqwhoD5j9dby7k+7VFMul2tvqhvvZ+7XiTGDF/aqR7nj8l2fAa38hV6cdQTpV9o80Rtu46ibDTtgU/tBuUawbgrbz7oTU6HLp5tIOYyhyq7B9TiqpWsM/jPi7MQnz9hQSf+06O13YDOqSIv9ZFljFE0NqWdr5k0yNqzZHp9fHW/+YhgBa6LFxCJNpGl5bW1bLMZJXva/LFLsLYxcbGOpzMwUuv7JGBEfr9E6iCHmYzDRcxBOD5rq1DpxiyDrTmg45HgO6wEWj89Tqw4cFvwer1ea+fXT/zldGnh9ybjNHqd3DirlMYndiEE/pU/vlycYwRlPW3KcJ21g+fZH8CT4vSaLKRQswWHDc0FKCQwA2p7MQyr1xKsU657TAciDr86QHDAX6uGqcyJzJVnoue32GYq0lD3jG2Ao0NgJYNKwmPioIxEZVfy2pbvkmzBKnUYdDCsB9hYxTj0tUKV69l2BsniDsbmEw1V4Cs50mevD/jAxUcachFaKAJmSi+Lpm3h+g1mhGPa3zsIZB9d9PvV4Jr/vQWVKcfblRVedH5U6MbXrOPtNeBR4Vf29rAGpU/7rWJCgvMNPTGYxUm65oakrtTZDE8f2cN2yPenaoDFcsnDE+o3TRSaelie5e/ldDApXGIeg66dF5yRJZDKGk0dA/KZVhNi1YblrM7ntQ4BNC8K9p7VAmZSwZJbZXkI8iC58eEXR422sDHP9zB3/iZc3jwrIfZted5/Bi+1hckc6X06gR3ngzU2m+6VrN20zf/ik0PfNy31Yfe/LM3tYPSza7x5nYAanr4G4+7hfKTVAcg5d88dZLKv0XYH9vesUKFgt7KC1SFluTmmzrvDjXNRUhL1SUoSa3aFcpXPiPypHJTYlWBmDF0rdwY33oxwRee2MG3XyxxkQZjgtje1xLkGsyQiCr0uXN45odDjQ2AdgsKqjb6MdlCJmnTkCykl8+nxnhdSDUWsTPDJz8e4Wd/coQzW1OMrz2LwE2sTFhmRDBRa8RbwYVhxxXdbnpLbHyTVmuNSK/nT43e+lrJvc6wj5PnzqC71mcoWBr0V8wfar4t+9NRiKeQ7g52aU7lnmVUfhWjuRP+rKt0MjuIXcquRq+soKGEtg+8VEb49qs5vvzELr73AnBlSvcmB8X/4o9QgEeZ9475MuONDYA2/vDSrpUHa5VWN8oYA9Jq+h2kmFFMxvyAFjeL0WuV+Kmf3MJ/8uufQBBcxXR6yYZmxFyPsGvM0KDMHQrPaiPHxrTQ2f1a/ach7a/8ej0YDTFYX7NxftlsNyAkJpKbJdoAxkWv00Yc+EinlAOV090hcuXBqbBXd64hzS/DD/YQRwWSCVEA5XfQYpjaaSGZvYZ4Y4CJ38V3ntnG5/7sBVy4RNFVOkq5gmCKZLon8FAnqo8xNa8DEMm6M8iz5AhfzHcGMLikCSGO8BM/CdwU7RZjq25EC1ziyqUJme7wuNBWi8kIGQO/hcALURR7PFcpQV6T1w4I3QpaGdWeCy1okokt9S1JfKN03gY64PX0O/Zrds2DtCbE4+ze92+27bce+epWTVTy96oYydbxZ59oUo3Kem1xDyq7yrqHm2sYsEUDGmtfyTRefQ799ZtkADROrtf1spCNfcohkO6HklQm/BkMNV3F7iFfu/bcPqsyyl9K59W1WpSMFm0yIc+o/P0gZBirQifKnW6PoUTug4GvLAPlW0hHBs6WvU/5bkpOK0+gcINcXTD2CJEznWpfldtMlRJDJbYzF89cDPDP//WT+NLXd3D+Ct/1peBaabhFRmstwR34mjsgwSUDNaowSxIkiWYi+Wh1uoR2/ExDMjzmTlHzvlUS7vb+TlPohpe0Gv0mhpLMzlQ5p0MLCjSbGXWFdhJqQvt2n7D/zGkqf2wZ9ONEhUdDp4VBqLj5ZIJz0Rg/fX8bP/feDh45xQN8GkUyR8sKpOzTiM4uogjaDlFECdoDQ2nxOlBo1+GFWHTE2HRIP1eXDdEJQ7znjIO/9x88hI9+cAhMX8NafBqBM0KeZ0irbfhhi16HSIDnJFmOyYz2Vp6IkDJgk9Jn6ZTySaYvK1HmpNSN2vyUJiRh1mw+Ffhotx4/CrE73iNKy035T911Gm4cSEeOHYUlw4J0B2UyNgez5/bw1fNT/N53ruAHKhSiPDqU0TDbo/LTANMhadlzG+6oiCqo9JDis6lcuOA5d9A/vWM6WAjQmMQkhQjmaOjF2SLCsbyF73zzEoKIzAtlQbWzcMSDaphPtYeWbaortPiccFJj0EIIVjdPgb1jxK9uoge1Ct5+SbChqUbUnEdCFR6hcsCYXvy1lZ2LDJ1RH5unT2Dt5AZKQn7BfrH/OFFbu73mdDYM/ONOH5PSx8VJgasJey+McXIEDEOFuFoVy0MxpsHQ8CJlU2TrYBBBiW9aRlPvziPgI0WHZAAohhQuVWb53gwh4ZISRYPOBmazEJe2r2CaM/a3eD80D5MzDtXcDFlYW0KKVllwlvKJmB0h3VesetvpthsVXu8QrnnbDQAPc8jwkChNRitVlR/dmLL9ayc30VsbwZP3nyv/Yg7ecSGf96T1DdRXYRhhQiWeItCgNq7uTtGNIvTpm4Za4Yr37itMkvIrXKWSq+pYcqshQ215LkdVWwG7/JGhw7FXYoy8oAowKsIoGoLTfQ8fez/wd/72Bh64u0TXI6Ri3KSkX73ufEkopnHayh41ZiuFN+hviv8uEED9hCbtdtNBrnnA75e8alvuhN7QpbBvnNqyqb1hO7QiH1sJWFb4mNGk8JA7EcMfIlOGAR5l1fe1wnCAx1+Z4E8fexVfYyxwYSytZmN4VM9cq7G+RrXFFtl6K413pmy0BkeMDgUBSF1dVVFpL0HxrIoVUSGKXZw6A4yTHK9dmLFliLox9btmnHl+2Q0+N2hK42CLkpUaEZCfus2CqGuqBxtQ829ufs2mZN638SV1bIODyWtN61W8n2pMnyhrtLlu9f1xt0UPVyJJMysAsnu/zfd0p2kv5335EWJCgdn2JbTi0EYOtLtxmpe4euUqsirg+y2cHrhECQpDMwq3RrFUA0GZJmM06OHxfRcT8pToQO0I0aEYgJl2fKXn9zQ+SIiPlE0lmtjBlcnzOHfuHoKtPq68NsP5Vy+gJENDQq6YzFYFl5S9jv1pNoh981QVh7yWEjB3iA5iAA6grY2oVkB72oCaHSivriHWSTIh1I+wTth/5p6zBvulBJrxJ49oU4CPmfKLcpcK7PoWCkQe5Y1yprJfzVeJ5e29EFemFa6NE7T8giFRiFC5EmSE/Snl1NYgMvmsnR1RgKt1A45W2fChaJTCpHpZsJhPBJ3IZTLWJaN7FLBTA+CTHx3gV37+HpwetngULWquacSaL8BjKXAKCRZtsRjlkSD7nfpz+5rdu/40bTe5xpubUIoKezx6vp6269YGHoz/5dJsEU9+HjDmdTXubdc8XtQLHIR0SrnG9ttDMAAwZehQRjtErp1WD3tZiO++kuPzT6X41svARSUIvdjChoootkp5bsEQiUpfUs6VxD5qdCgIoGIspMU+UEmYZAz4piwkMUDodsgmF+sDD/1+jMu7a9je3sZ0RmhFRXdpea1T7J+8X2kJMIdo4I4jgAZ6oEDlMEKApklAfb/+70dCWQkNbn80wvqJTfQ3hhYGyPvrAtreTeDfxr35/LgNBRLV2/TfaUE+eJGtcyERCyi7bkGoTw+fMASY5h4mM/GjwqjtY73tIZIopi6luE4IVjxR6yHotYqCjhIdyq8t6Vk08Ye8pVIrY5oTXKlsQjF9H0Gl2uxtnDtV4D/61R4++oH3YEDGZpM9m3Me+C6bR5hVr/fuR4Rbh1RhZgrb5J8pdbNWG65mrRHpsgchpe1voJt9l6r5tMznSJV+GyP4YcBwQKs6a1gwJBLzbF89j9c6jns9huUUgZamywu8dnWCnJ49I4RPNJU4zzDZ3UFIHsSdDi5M2/j6k1fw2DPX8OoV5bW014B2GKpZLdHQJKOCMm8SwD/W6q96V9OhVAJKYa6LnD3Vn/prXreQKj+dYjq+hmcun8H/9u+exm99/nns5DH67REK/qyKFiSiYbiWvGRlxB7jtiZUf1P995bU4JAFWRno/PmtSIZCw5fNqeHvNAO0PxVatYe/1CGa8hg+ids1x82MWXJPvy7qd3DXe+9FEEUW6yujpd9+XdftPnjf9lrrNzS5+6NDvrjB+8vnjkp7GBCvUlTZ+JmQqypRC5ULVx7a1Qzr3g4+dn8ff/dTLXT5cQt7aGmmoZxTxivKiPDsPKfXI7t8OjIlCsU59cHcPLCJFnpwZ+lQQoDX4TubMeD1f6+TXmkY0IEXUgiDgNbYwYvPX0Ga+oypXEsflC7hGDtASzc1XkSzobIchOr99+cvbkk3dvJ+xONu809V7sX4RAlW5KUl2cU1jbRohRuPnr7V7dLrD9A/sUbBtw4i3eSHXGc3nxyzGKBWc8ogb6tW0sX91+/bB3rmko8h0VLC53lEp+RhOvWwvqHFsbWNfsYwicqchjxWhrQ+VahJzS5Dyok0bF8FyZG+UN/xLqA7aoYqWdhggDgs8SMPdvHLP34af+2hDYTVhFZ3jMxL64Umq7ZMhc5o2EQ3e/+v0Or/+7Y7TTahhz/EpwHVKrmSQGX0lfBT8UrQbmGwOcJgfX1+xopuRVqwxvPo15Uc9Vp4bbvCl77xEp54IcfVaYsev0/jKtmUuZXRrWzbscXWY1Iw9YnWTJARENp4tyi/6I4aANULpORFJ/ZwduTiE+/r4+//8iN4zxky0tmx6aYZmZtlqgwke8m8Jq1+osfb2I4IaXFLjwKnGgpBe+VjMm2JRUEOtHmHNu3cWEN32JufsaJbEoW0zCr4oY+EPLw0S/HCpRxf+tY2njoP7CQeZgxbQScGhgOocnr5ei9Dh7y3kIKPCqLqTVKVGF8ZACPFnEVGluR8Qf5RNvGJH43w93/1Xrz/HPH/3hglw4HEkfeSuVjRflRlFD7G/kIAslxplpj3DzotrJ3axHBrE1G3ZSv6rGh/Kgn5M3r6JJuhCsdAt0QStfHED3x88avAt5/kMRrw8saU5ylDBBkByaq8hh5pAAj5Veei5KqGWQ+SITpsuqNiwEgfPVerLvCFfolPNNCe4ZM/uom/9Ylz+LH7u3Cmr8HVHuXCU9fd8Q+/2T8arCbtZufftOnhEKhSvK/a/mSKfOH51wcYbW2g1W+b8s/4+YoakPqTuF2KrXheSMCJWtjJfJy/XOD5i8Aru0QCCBmyamSA1oChbS3U6uDaGOhc5Qpllw+p298R3VEDUDOpTpyUfNCUai0ucfdaCz//kVP4Gz++hftOJIz+JzxAyUAe3qCpz253s2s3pcXx+7VDIFVSUlxpABIkeQo/Dgn3qfyC/YNuvWlnmduiLCvanxzVBbgTK013qxbj+TbfC+C3HTidEts0Dk+8Cvxgt4VxGaJwGXap8EVNui9EYPNZNDYzp+tP7jzdYQMgc0iriRlhkbZzyvkOYRL59fA9bXz6J0/iUz+xiY1gG16hz48CHZJmNyQNZ0nAlPHXTL52v4vhxgi90YDGgZiL76uy8vWs94puRZrP4gdjmzfhaanxnIagrLBxAlg/VyLrTPD4q1fw+AXgVUYIdFWaGmRDsTzM6gxs0dR5Eku6/y7S/zttAMgT/oKJav21QIOxjkQZlnjedaaHf/CrP4qff2+AU/2mOQCdKR94+/69BQ7csumBZzVoh0EUN0NTfisyzz80zz+wYqqsSK24R5PaIivVXtF+ZNDdK1GmOUI+75Bt3SjFvfe20RokmBId7LoRnroMPH8JuLgDjKnrxKs0wIr5iQhUyq6m67HdcaW7ge7ob9Gw1B5/ge/34SXk7FSbj5GDXo5EjOdnd42Af/SrD+P9D2gXYbHw1m3x7Ia3/spND0eFckF7Sm2727Uqv06vx7i1FkJ9ploG1fjXqzSvaD9Sbcps4lv9f0FH1Y6BD3+gT8WZYjabIdViIVEH1+ifzl+Z4sWLu7i6ZyDWSie0wI0WXFGx0LuxnOqOGyOJoSYAubSi9XRKglNKqZRfMtqmEf3Ae0/ilz5+Cj/1UB8ddkiRqYxVAy1kqVKqufZ74cF0fVlaF1uI2fu1uuSjQTNvLUvQrMlrNGk8uGGj95DmWm/xkXCyyuhjTKF5L7yWmtYizOTYybR4rYfexjrajPv9kLEp8aj207f1FnQJ3RkltFl74685Hk1rJxKaS4DEP6uZqOeuZITtGWP32mdTRilvHcrhsFeCLMU6fZFyAkr/O4z7NUCllxdmPp7edvHitQK7jFitINCtKwQLyrfVZfKSzQrKfjh0aCsCNSHJs0ooyLta21Vf7WhHl3qlYZ8HmKKwc+45QY8W+HjumV1c2M2QC8LyfYdC7TOuDbXCMOOJhFwPVQnTgHTpusJvn6Ze4+ON4vP2Tb9Z58yvf4tWH/7m89/aqIMMlXhNEzqKJRVfO93qdynpZ5tgkFdaybfqRQjWqfxrI/TXh4iimEc5VP6MxlHV/7oWD5bA6/Jv+EVv144jKan8uvJrl2AZu0IGUjG7/pHnmibcpaEY9n2cONnBGg2AeG2VqdravvTh0vHEZOcu5XavCG2F5R7FsxNoTov4rfF/ncPvIs9dJbTF/31IYWLj6td3SNLBI0Fx7OCDP7KOf/Cfr+F0H2jlFPSCFttN4IRrmOR7tLR7GA3jQ2faD5t0PxJSDUXZ4im8PS2aqrUT5aVsOTU+alHPIRV/bbSGKKbX4fEzwlZt6JnbMFZdHCRIaisxLzWRp+SB79O1U/FlHJWw82gc2902DWdQj+lTWYdrbXRpWAmkTIkLarN4a3sg8L8pNjWpKx9GFHZ5nOPpKwwJiAJ2GQtIybSMqHbNNpSmtQUb0A9Djo+MAVB0MFzL8NEP9PBf/fqDeGSLP31P6wd0McZlWggphIs0uWbW+1iRbofCJoETfFRZqoRXuFOKLc+vzTo6/T5Ga2voDwc0AJF5EHkzCatmXmjNf82wrGf3HTMeHZikhDKCUgEGhORVnZilopLJvq9ZkS46nQCbRJ+DYYioJd5L+bVKlUyuOqOu99epoV4WObZTB0/vunicRuDFXYqp1rMhSmXcRsTA/qDBfrfQkTEABfYQuFOc6Q3w6R8f4lM/voYHTseY7alCqx7y0v7w5Yy9YB1550jf3qQt/u5HyiALVuq+TPnlbswTWc4fDtFATK812BjSe3UQaXIVFV1KL1XX8VJ+eX95lXqtRSVPlpmk9ESQtj2dEJZm7snIUkGzGaF/iT4D/7W1Dg2qaytba/lA9ZmGUhd7PxiH2Y3SaS1kq3UWMifEVRqBH2wDz9A3vbyrvItO1sJ4Jc2O8g/N+v6w6cgYgHK+GGOYBzi77uGXPrmJn/lrQ3RDreVSw2NtWOgVPR6nTm1Ch9EJvKY6t1HT4W9+763NFk1ViS8PtzwA/0v5c/JD+/aF7Ra6owG6hP+a139dOHms6gJkDNQk5LqklF/IYZlJaWAprVacUj9o+braAGQMBWaIggrroxY2132iKX4usECjUEL5gTl/5fplUI2nwIwtJ1QNAqILfnR5r8DzVxI8fbXEBRqEmWqGFYZpzsC7hI6MAfDQI/8jFFPiqcTDI/cF+Juf7uJv/+IZzF5NUI4TRG6MlrvBo8n9NynRzVt97aNAlow0rElhY6yaZvUMtbjXQ399hA6VP+y2LB+QpqkpOY82pVfsr1vVpqwyDvJSdv9LTLp9Ka4YI4W2HZXomT0qZxxV6HV9GgCgPxDfch6b8TGjgaDyWl+IrzXKqg0JMC1dGgAPcQjwdKK2FBf3cjx1DfgOw4FX6cNKxbLKBNpvUH/U7U7RkTEAWnfNc1q2aCX7idzL8cC5EL/2qQ38zZ88ha2gi3JX2dUdfWjn3BGaC1WTVne+Hm/dpPi+r6yzhCo3762debV7z9rmOqH/uq3kazvVzRX8euOxWlpd1WiWuOJ7NledhmGpicwUQrKKXSp4rmXRnQydtofNzS7W1+lMFPOT59o5qMjJV4EFTaSwJJ6Uf8FDHqQmx88m/Q5oMAJev3ADXKbDeuoS8KTmDYx5jqvdhO6s4i/oyEiBDG8hfmmitTZp4/MBY98P3R3i13/xFP7aw5vY7DuoXAZdc4h250g/tEkT3ez9Nzbz5PLic4HRlmkq9BmuDdEbDREx/q9oELR2go6whSj4qOPrrdhro6B/IhkUQxNLTKb81FRyh7zJybMCrcjDYBBhnXF/l5Ekoybjn9VCSFWo+NWi0RAs9Fe2VAuraKd023CE72ulIYsbaAC03uBlOqcXrjIcuFbipYkNLBvdaSNwZAyANhzVrsFaPyAPi3pn28zBgIz/1MeG+MVPbuJ9jxAhBEq51tZ1v3akSL+XwmiwX9tcq8x3NEKr04Lju1T+AhmbBFs1/zpufqL9lUmw7D+bLnXk7v82k/YAkHuv4X2OkMrf7YU0ABryA0JL+An2pwwLiD5td2HyVfkmKr8ckhCBSMpPgIYWjUnIN5VWmFY+ZVUjU/Xqw1U2w6WdBE9cKfD4VevKdwUdGQMQ+KXt2z6ttsFovza1Eu6xD5/c/PQvtPDJn1tHv7sh816fdExIw3+C/hUlSyWpnQ69/2gN3X7PknxWucZ4U7sp1UOEymhL5fmPj5YIJEIww8DrWQJRQesSk4qnhBSLgnE94/9WK0SvT8/fpTLTk+v9spyRj9ofgeLG9+wUnUUFXyArkWyJRgiicoqwmFoOWittzvQxH1sKLdwM07TA81dpAAhSdf67gQ5ne/BDIUI1clNQVpaYdlhujG+zKdbiERevZfjKt/fwP/zT83jp0vPsRAI3d8TeXENaaCfiDD4tfakFHG2kIOe1GioCv0Zn7EeClNTY+atb02xeiaYp0FqS0pVAqTd4X/p59pRNcbwmo3QJ+QcnNtDZXEM87KKgd7GSVZ6n36YiFlN8uzed+Vayd3V9Phy3MMC46ATkR53QU9ZevkAGUQwS6tEYfEm5CLyQBlWTz1IaVAdnTvexPtJOQOR3xmNocMVP1U3cuIKPRE7MM/7pDf4RG63pe/mBNg1VGbBINkNDivwyE1WFEvo9nbDEpx7y8KCK2mg4ktJH7gU24SjQTAKiklyVho6qYu2bDoXmNu0oEBnHDvZN+UXiOH++AjUpENvJUYSPvn+AX/yF0zi73kYMHzGVJMleqcMxP6JwsMuLXZ5Se8u6K/dvddTWpIlu9v5bm23Awc614hwKhYUm8sx8VMwvZbYhPd5qRKjf6nXRotePem04UWgGoFSWiqTEk7a20Eudswhz3tz4x443kVq8PiZt8dTG9K3UlvyxBF49BVqf6T095JmSfiW6nYAxf5vIkcqnSj+xRaEUDxLcf4MltvfY+MciCDW+1vvqpoLHW70/NV2rDqtp/EUGRKP/qmbT6IH2vbgwLvGdlwo8e41owWnVv1lxhTkPXoPnePMrHiYdIQPQjAZ9H7/yqU389Efvxd2bI7jFhIp/GW6YSDIIk9UBKfsipdI19P6HRFJwm2dOYdUSXqbLJsUSLklZPXynyTz9jXV0hj0E7dhGACR5KisxQyFR5aOmQMztwVKS0Jdi+pp1Cn/qsf48p+dnM91S4Y8eq8SG+4bDFg1ACyGjSrE+z+h9SbauAvk6745GbfF3PxJ67XsJnr6wjW9fyPEiRVMrCmtRcY9IQati5E7Ib5d8Hq6MHjsDENPQPrIJ/Je/fj9+5sfWMdt+CSfWTxP67SHJt9mxAaJwA46npcju7CIjmpPvE+LZ/nv0ClJiKbQEqd4wlV4kICzt9TA6uYk2Q4CwHfG3WwBkRkKDUTIelp7im+aRlpSsxoHqQ59P/tSIwDhCo+9o4YmCCk34r1xKHJcYDDxsrCnxV8f4RZ4hL2roX1dN0laYseCFGjV93/6kRUKDfILt1MN3Lzv45iv1QiLqepqsOlTQl8ti6bqHSMfOAAgKt2jE7xrm+PTPjvDrf+cj2Lu4y4Bb0zYFynK06EUlIJbEeUsn3rzVArV/45/5L9mfQj+031vMUuSJss304so4sfOTLLNZe51BH2uM+1trfVvYU9PL5MRUHah0c20AaiMgA6LE37KSFEihXZ6nSLPUeOQrrg5C8klGoDTl0wy/DcL+zQ2GVR2ew3NzKn/B8/RcCEsho67XvDebkwLKvHTRHg6Q0Jg/8WqFrzyf4VqiGMRHSBnl1yPLiFitVPnw6NgZAOsxGoCIcd+DZ9v46z9zBp/42BaGYQ/erAM395Ekr6G0SfGCeQ3pECRBXSvPL4+k2F9fIcuv6aNOUJf4qspPyT83Jkble5IHmwOQEyFQwAX561CgzvjbRZeUBPs9X5V5SuLVeZBFiKSkmtbjbVHHRoPYDECvR+NATZOjlWGwJCqbyHyDnuhUPjRtjYiorwj7/D4lgIG93MHXzs/wndcyXJnwi9W/swlSv41CqwodIh0/AyBS71HRh60WPvBAH7/2S/fjIw+fwIamc+1lyGbjucLp38078s3tMGiRnJLe6o9q+wtqtEOpjHpdKv7AvERIz68CNMttS7hlMCgk9XRUNhkNXsOQQX3ppaTFkGettAtEJl6phDcjeCrQ7/o4eYKGtUceU/kty8JjAiKveuUeH8rDKhUwZ239pElrSEJ2hRZpyRh6yPiwb18ch/j2qzmeu5xgPCEaYT9ThK1PD5OOnwEQw+TY1aGVj7Uowqd/Yg3/8a/eh/ff7yK9dhVRscnDVDWnCUY36ci/UrNf0YhywXwZKwWgvuAelZq/P1Chz+a6Jf7CXgsFvVrG2FR5AY0c1ILNC8wf+I7djbZfrU3a8pIU1uog6FolCqXG8wntXTezIb4RY/6TJxR+kXfSdIVRVMiIb4QMr4QY0jRjCJHXQ3m8yJzV+7ampGPp9Onlp6imE7j8Hq8b4YUdD49dSPDsVfZm3LX0n37CYdLxNAC2L1M9cSOglW2Tk5/4ERe/8ukuPvFjA7hphUDzCtzDhVf7kdXqUxyk0NbRFFx5+976kAZgwzbwZBiIGQ1FqV1r6fEFZxXr+y6jWkJeGQwhA94tMqKHwxaYdzOJn6qLUEa9XuJLqlYiDB2D/eubLQwGvi3db7UVFkbVSmCKwOclPb/mTMjY2spOkidT2SatIelQ+h6N/sjTa63BUZvvBTGe3fHx9VcdnJ/wEJUpHHKHHjsDIN5mNKkqCJY1ELwCO3rUSvHjHx3il35pE2fOXoNTjGiB+3bUnSItYCIDIO+u5s437tQqvi0qv9yUctqpeX8KIwVcRSGa2mu1A4pXKaA1AiBkJDrQ82Ulg800lEJi/G+GVQrcbofY2Bgw7m8hZhSYJBMqujA++cdW8an2SaGdpfJL4xhKkLcyAEZ6aNLqP/uSy35q6Usdj/9jGwp2p2b/MQ4GeDbp4i+fy7C7zR+k/fUPkY6dAVAnaBhIA2S1aSejXZoDCsNdJ3pEAKfxc58Y4a5+Ar8qkJQBjfGMcqCqsYDnBfQOCSFkxiYBUjFJ064V8cjrAkEPrcZrXG/2Xv1xvXOvRnspsAwDQsb9bcb98vwKCxQeqIhMQ3wSZNN2a/P4VsQHe2pNL+zdY0S8X/KpoiWXKmi2o814lKmjglrugzetMuhKATP7U4t8iKu+R0VrV+jT6/dVcUcvq3UmC0J8u7K8g/qXFxYYUEQg9sm4Wqmw9RffEfObNH6rfs9+zW5JV9b3eww7+H15MrXI1WFosld6ePLilC3BxXGGJK8op4v9BngN9XM+471KrmX668/eSdcfoVLghkRulAmhckAuOzkZRs9KBpdSbH48I6cuXgL+2T/7F/jM19t4/IoCwhfQDQcIsWYWd5a8hO5Q3dFCMgsxm5aMEam6GrPbj5SYU5N3tkq9WojecOZcUdvsbU3gyZQC6LWxfvaUbdwZxpEtAEJYgEjbTPE6Vja8jET+OX5okFzj9MqTSA0szp8bUKvLV9k3IoSu1kSgMnlTdFo5Y37fCn26RAGB+oTHav9+j5bAFlfZl5occyO9oafflmR0mtDHT6T4kZMuglZdqaigVSNcbnKVIQN/mx8jdTqY8nf2zLAcjI6lAaio5JqXbdkVt06sqUTTCiv5lqz9U09t45985lv4V396AX55FwVIir9DwSixtr5BmHjVoGKeaqx+HUFEFut6+1Cdoa9sZR5btJPeylbkVYEJLf5iqElipfp+Lw4RD/robtWLevjtSNDA4lNXCSqJOJVA26YtJ8mrzpWQD3qqHY/FY0M+JFdQWjzVPH16T23S2WqVGA0dKn9kGX+aCfO6SvIF9LqGGBYXuCXpu+ffvy/pes3UqZ6Lsj+dDnbw0MjBw/f0MYw1b4A6XxLBaA6LoSHeMg2hCtxU63BQOn5iJSEx5dcLegYyqX5GT5smSNPCpnree88Av/jXH8Avf/IUqmuX6Y3b6MQd+LSqU62oU0UUqhYCep8wpIDxuua492lKRAmiqn/VxRrnV3PZU9q115k/ygppaC/stG3rrtHGBsJWZMM+mqln8mE5AsFeXnhpSX1owJeGk4EdjarPUE2TfizMk4mkUpsR0OQfKT8VZdCPMBh00e1EVtUn56+koOJ66ktjlb7TdDEJ8cS2i6cvFNjbFdIhL3gzpRvZXoQ5+RDwnjzet3h0UDp+BkBknc1GLZKnqDtb4+1aV0/r6SsxBHzkvSfwK5+8Dx99tIWOO0Yk7+C3iAT2yEoKWNWjDrZoABQzirn7N0MbbJbdlSJTeeV/Anl/fqh95cxs87+N9Y8G6AwHiGkITOEJca02gMJuNf8WRvDSS0xaq2+x10LNZiGoWun5157rM2G8IMgw7DOYW4sx6Lk2TVdZIRkAn7BfoYMt8mEXevfTlPL3atbGExf28OLlPewmlCvedy5UyDumoMxlnSHjO7in42kATEj0RJypY3BB6SgI0I41Z44f0kuPYhd/7aFT+K//iw9go38RSBkCFFJ8zb2nOOUxhYVn+ju8zP7wXyS4rkq+THXlbHRf5rUEOxfTOnVMwIBubWujHutXoQ8/0o69uZCBjASPsdmKPLdZrHpMibduYZN4R76oglP1/LK0+ieeWg/TcHpegR7t6Pp6hLVhnfQTKXcg9KBl1bT4Z5on15Hhu520YVZKw/XiTonHX0vxA21FLvTPz0KJhzCiybqvPwemY2cAhJbTjBBcTGFnayUXlYVqeEfDaFJ+2U7N0fYSoEfB+LEPxfg7v3YW7zlbIN+5glF0EsWUx3j0HGGB3fGOeeYmJA/jB1pvQHBNnaPvpJDy9wjaS9Gl8FL+4dambd2l4UBNQjG0wuNMoHmuwgldz+YHLC2Rd1Jy2UD9oeLLQNo6hyryqRQP0xf6OTpttx7r7wKqnJZw2yKeRFR1zE3Okr+GzHgN9dGdabqvZkQRFDBE0R7hqb0IX305wROvaTl43qNmf5EHCV9kbodSc3B1vqNbgx0Wqatl8e3J9Ye6821+PZ9IyVBoGq6DOK4w2gwZFhD+j108+b1r6AiS+7vISiq/E5G1UkJdaR+it5JCm+fXS1N/Kr+8O79TE3p662tYP30SQbfFHqjr+0VSdhN2CuuiVNnmifNezJgsKdlwKP9p+y7bIUlIQHW02mhDq/jGDvvLxdoowhahvyby2HnsYuMn+ad/WiCmHufX+8KEDfrTjmly3EGo+TVt4IkCosrBCWP+hEhfRi2mrHQjOgfebOXRyfHzhhL6Bjp2CEBOgjpF1WFHU1AMKroUHCcgMxmNV+x4tVKKRQ9PE+sz3r9vq4ef/fhd+IWfPIv7T7bR9gkT82s0ABOGAMKSYq1649ZtYeVtZp8NU8kBKSlI2N+OEQ96aK33EYy6tpmJlf/yd0oYQ/5OTRGW4VAdaqVGgZUgLzPVIyvqARkB/jUpF1MI+/3C8jn9oY/hgEacNlUH11t91aMoCr+0CYiG/7TCr1aUaq4q/J7Xu/fWrf7TgJoex19Z0sjlKeWAfKBgjBHixT0H33l5jOd3KuxRjgVumt7Nm+nYGQBjLuG9jRtT8Woie2QIKA5mCFTww6ahlNJJ+RljdLLi3q0OfvbHT+Pv/u2HMGzvoUwTXiNAoVi8IYel7LaJh6SUnkdeXN3tE5P2RiP0NtcQ9rva2gApvbyFBTxHawLI2ktgNbX3esyrz9mWmiTh7EqD7WbUlSTVWgmM8+X9e55t3dUm9JdAV0QHFeP+BWqinSVX+UeVfxp60VG6zNxY37rp0Ib/DnDNpsRfzUZ5ohHQBqTyDleyAI9dKm0xkZfGhP+8XqRj+BsOSuLG8SNyTYUeasZB8iWdFciEnxbJUjb6Fb5U0UDCF22ERAj33+Xj1/7OSXzkwyexsXYX0cIQKcMACx0akJQ1V5mpBNWEld6dBkRbdq2f2MCA8N9pBbg62bPaAPstNAAa99d58vgKGjQ7TSWiSnhp1uAyk9CUFFgJwFw7HJPH6to49tHt0rB2Az6qeq9CkszIU3l5nqEuYLepyYZrezQZfyEDKeJRIMX1WtNgrROgzVdK9msDkm1vgCe3HTz18i6uXL7Gm9SSIge/p2OYA6htpuFEa/N36Y1dSo2WaTazxwctBy1h0WJM5mVICh/CuMLGxhCTnQkuvngV0yuE5xs9TLIMszTVtHx6HpcIgaclEYEEXY/DawVXEbg5WmVsHkgKXgU8d9hF/8R6vagHld9K0CmVSlAaSqDHl3lRk6+36J+/3bpzcR+LGzk2pMHRkIqozuCdagxfQ30W9NZeUiW9Ul6HCuAQxmvEy3bwYezfbrlYH0Y4sdlBv0tlpwJo23SnCk3bLcYnb41v7NvX9Z3fwbcMYRlPm7SmtDj2zeffrDWjjA5Ai4coE2gFURISLXaS0Gmpos1rYcYQNQkidCRrurTKhDNCAz1nWKlBbHMhNJyuzZIRvwUnalU4hvQmJvOp68sA8Inue/6xEmymhKaRdiQfM7jlLt7/SAe/8NNn8dMfOYWTtA+zcT1H22XMmVdTJDOt4BPRq/j0KFN67ymFkPCdXxCwowTrxV1V9rVGPVvF16HHKing+vqQ59WJShkA9iubFF9tYQysw+eCKgE+Tq3mucRP9yei0uveyTf7nO9bgQ8FWDkcZf5zQXuKcovKP+iHhP2xZf4N6ClMEuTnObXy61HX5jVp5Ovkr5KJ9KlznjZrB6WbXePNrTmZc9C4v34+T9W9RnRiscmRY8uKPb8DfOci8Bp1fmyaru8QE+VOannS2yZP16WrJvXA8pIJSvQ6v0T0MGUxIaPH+NiPruNv/vJD+PAH6dG3J4gpZN1IM84m2BOntdRUq0DqvErjugcn7dF+9JFI2NhTYbeN7mCI3oCev92yDtCKsKrs82wDyYMJw/Ei8sjR1N3a84ssuz9vUn5VYWqnY42kFCqnThMen2FIxV/bbBP6y4jQJGSa/KXczp2d3n0YpOKlgD5KMiqxEgoKowCtDkPWOLY9Ia5cy/HSKwVeuAJcnGpPAq0e1arlS0aP7FUS0epKLPdVe3/RUhsAypkV5RlzZSxlGAm1WiG9enoZ7XAXH35fiL//Hz6K953tYsAYs5qkKKYlBXCL0GqKvfQSvChFyF5y8g4FVSu6VQi6PH5jw+b1twYDW9lX17bJQZYcXG7bW2OdjDJaz7u39ySo6gO6OvP+hP1SgCKlUaag++S/4v31jRij0bzQRwlfCTfDONeh4B8zEkhUE18EcMQpC1OJ9ZXj0voHe+MxXru6jacuZXjmKvCqJgqaY9Noh+aUMFbNEzu30KS4aj5OSlpuKaTgaRqwoJXxSlTIOob856GcbCNydvDBRwb4+7/2MB44EcCfOBh1zmI2myCrJvBCD1G0RkZ2eB6Z7M3gtmMMNtet0Kc16PHans360+QgFQlJuLOUcVyNdZeUpOk0laq6NK0XqSNqkayLfTKbu5ElUxpYBxtrHZw42betu1TPrynByhl4Po2vzjuG7FTtgi1rztBIyU+91kRRzWhWCkCo0hFEIBp9eezg+WvA+T3gimYKU9lFHnmsqe8iFcIXNyDPpTYA5nkcLf3ER3FCTYOtqQxAF35JCMo3T/Rj/NzHN/Dpn3oPHr3vFKpxhnKWwzVPFdKi8ih2AKT8cYHWkLB/bYT2sAe/FdMak+n8CslnXbfO10coE304pIifnp3Kr4pHsUIxe70Qh3IeGhVJKOgTKnuBfi/A2lob6yOGVmR1pb0iC4YE7EMVUImTCzNynEh8WGxLLkMpIyDYn6qmQfkSGj5PoWjYwk7m48Kkwos0Ai/tADMzqAxzyaNgnnsSj27k03IbAGuaUplYEk5vSBDTmbz0AO1gHS2vT+vp4j1nXPziX38Qv/DT92PUyhCVjM2ymAf7th+/E9AgtEq0+21bzy/q9eBSUqt59tYElFbAilr4KOOxzCT1f+O4+Bz2yzsJmV0X/ASDnmdFPgRTYNhrfaZKQCvznfebhLq+zvEiSU7deIc0AErp2V8znHzL+EWnRUikbP+1WYWXt1O8cCXDHtmjKfD6zKMTqqXwjbTUBkDslUfW+LA4oaS0Vgufpvwj2eL7nuujYEzl0eOcO53hF35uE//oH/4Y1hiDVbs8fkyLXOxinF00z79+5iyG62uAr0knGb0UYzB2gLyUCoTSWWrr+0UaBZjD3WUkKWuN/OdZewqqiahpMQXeJd98RqxxiRMnWlgb+mD0pNJ3nleSdzLSqvCTYRWa0lnHj2z6s9UvkDvzptWKPC1g6mv42EFCRDBLMhsh0GjB5UmG89sJLjEMmIrHipckamTe3F5ep+WVQJJm+hWFagD5WFFZHQpWBLQIN4nwLemiAmuP72lCUeQluPusg5//mS383b/1KO45zQ7JdhBQEHvDk+hunEbcW2fnBBTIGuYrZhPL9R1mVGhhXMKN0NX33tgVS0aGgHwa2AA+GSxDq5FT7Xeg7b18GtheL8T6egejkW9Le2kPfyUDHc3QZJCm8Mv27ld8q6ne7L/jRtR38oaSwiZ0ZEPXNACaHya95k0b+inIg4jarE1PcsoX9R+vbEOr4PNzJbg0Mc7E+Q1Kv9QGoB58V/xINlB4imqKnJGTFB4h2SoG86PKTch4viaT20GBu88AP/vTa/jgozE213wqc5/x6QOE/RuQm1ICa+7HKJx8brBftpodSK9P32VrAyyx+pN09xrnlwFQabZW8oFNo1ZiUN6+24uwRgMQMbTyGWJptSYphBkP9p326Tfp1x+tkEPUcNyoDpF0k5Qm3raaWGf2U68po6pF0Z4GEY2gFgfRmzMayUs7NAApeSo5n19DCq9TF7TUBkCMEAPMgfCZ4ioVm9AUmAdyfMZaDpGBoitxXglCevSOn+GReyv81MdP4kMfvgfttZOE/2fhxi2iCB6thI06R9LK/hBEVdMltF69pNhWDZKVOHbE+7vebk71bUtQpbjzV3yqOgAVAkaBi17bx5BIbNSXB1R5tCon5cVq3FQfryf1d5liHEOy0RA5FBMW3iTvV/et9IceJb+KYEPtJEXmyZ3przYXuzJJLQQws6iEgTZO5Sc3sur4rQl4IBJ3CtsEwotiKiUVk29JmDTWumCUZLTaS+BpnT8txKjllyZTbMfr+Mz3gf/l965hN+9hQPQQ0Aqnx1Ua96U6PhWZUJn3qsVr8XrxUDoz2tMMgdemi2Isn9LDUUg7sYOtLSKrDYZVPU34yYgKNHa9nL7KJKmBPAmsDoiQrjD+nxZacCbAVpzgZ98X4+EB0CnGKNIJQ9yYjinm0fUQ4VIjAGOvEnHmVRxLoqhATxZVDLWsvWJOCqzTiqAVfqoZAyueNuus40++U+CLX+PraYZItdeEraWw65KT6flc2W9Gkmcl8JwqIPqSRxN8LxFSLjvdAJ1OSEhLX8ZrpIn2RJifuKK3JQ2lbs/IqCBCGGkF5Bxr3QixxFsHEHnKyamsWI5uQUtvADSOqhVVTSgps/W03BpKBYSoSqpoTbqcFkFr9ClWzfII33wZ+LMnxnjqpYlNJY7clIFCjkTxxBJTrfdvVf5a5F4XPM2acLSopc3uS+mxCnp8F8O1EO2OeE1wJvhLA7Gi/UkZpknloyTf6M8QFFNs9Rx0+FwLBxnv3YDhgNrrar/UBkB80TiqrcSj54yRKgqjY2NNdYmqmKkjtSKLNu1Mqg6eftXFZ7+Z4bGXaXWziMLrM27lMQXhv8ZhlpgUgS7ozWagRrL6o4yLT0NLYaQBUFyqhTxG6yEbY1khVIppPSdgXgi/zCSruk/jX0VSltcmUxEWE5ygIe0KzWrZNOOhj4L8tA1J5rT0BkDqqkd7rnXmtEfU3AC8/knN4DF5+NRlF7//l7v43FdeZbzlw+/3UbaJIOKQKEtCvcwsJZckjPNmwvkmquG/BE8Do0RUPCSMHAwGqvSL0GO86hC+FhRine77Gu6T8C4niYNNmvRbo1e2dESyh64zBdmJjl9RLnWEhgs1/vRGpV9qA6AheiX9RGKMCi5CJfpchgbK3KvckgxVoYWDBE++Bvz7b5X4zFcTZNU6GVvy/DHGBP8TerNO2ENPs7BWtC9pqM91cgz6GkrtYjhsgSHq3GZoTF+GgMhMyRjrnRXdksg3K4xMZxiGOe7d7GAYlIg00iKelhpHeSsnl9oAmGNhU7GOLTIpEubnB9qTMSNcyv0AqRvi5Z0UX/zeVXzh6T28kg1QuBF8zWSjYVBNtqoHHcYJGt9fZnobx08iX0yr66ZZgBEFdXO9hc3NHrpEURrXSrXQBUmVbhrfXvoE4IKh+zb697RA30twbhTiwdMDOiOFsPyMam4lwSRJ5woBzEnMkDzaRAtJmg0si5+atsv41HOR8vNrlMmvPpXizx+/huevpvDI4BlSnlsiZjwVUPHLhPF/mloeYLlJAqcQoH51Ixm/5y0KS/S7JWF/SBSgcWyeRUNsc/vp9jXDT7a4oFdbDCUuK9UcvXUTwO95U5whL+/djHGW+D8i/K8/8a4n/pQQNJswp6U3AGKArd4rS6B3yJxMySetCcCXO1T+Z16ZMe7P8MwFRq6xh/4GsF1uI6egttBBP/XQznKGCjPMtG/bikjzPMBNSLxut12srXvodLRhR90XgqluxZh/PkYtc8wgTFey1yt6e/IZtt418PDQyQ7upvJ3tKEA1V6FQ5oBoIVDxWNPxUCWFKxpqQ3AAj2pwkw7CFudKV/nZJrYpy2Znz2/i9/7k6/g6YubQLCFwBtje/cJBGsuUYCP2Z6DztTBgCcGgrFxLbzLSvs560VCr90JMVKWykmQJYXFr75P1Sf01zVyxmBaDNUmwNSnrOgWFBCt3neyhXObPgYxGZZN2BmljXIp13V9cEo5gRsM6lJXAqo6Usl+l+bRiRIqfUalZ7xUdogAgD9/qsAfPraNLz8DjKd9wtKUB4+RVjM4fo/neQgzrUUjP1UiieXKyPycF11KIkNlQyljGuhTnb/QVamtuEqGTn6Ofi/EcK2H9aGLTluKr06Qktcz3uwqPF/TXvW3Vn6VaR034h01uClNgKqcih6cIRGPt01m+X7hOUjJorBIcTae4H2bDh6+a4BBiz6In3tasdbyWb55f8m6thJzbHRL3137/uUuBZaMadZfznjeY/xO66jdVjO3hSdfBn7nG9v4s6eBl7MBuuWYIr3s8f3+pPkUpsy0oB55qRGoIhvzvRla7RJbWy2cOjVARAOrUZZlJTNpDQyA49G1yAAUqpx0oUp0GQKBeK0KdDqe4QNrCT56ssJoQCdVF640pqUOARQiGSRqZxhrDYCkhaBsYZuQ9F984Vl88ekKk5RQNT9PRq1i+32JLNTuO0rgRZG25dbSZ1MahQxxK8DaqIfRsGfzLPYLFVZUU1b69PQuvGKGbLqnNAlKGs88qTBMX8Ojmx4ePDeA2xlSlg+uzsttAPyEbQavaiP0ydUowA+uAf/vn+zg6+djvLSb0sru2Qai9SDKivYjLeOtIh/heJX4ylfFLY+K38LGRgf9Pj81A7C83v8gpAVktYhnkaRmVOWnpjOg40zwo6ccPLpeYFPLUVJ8myCKN9NyGwBLiBDWT3J6pQjPUPn/8Ikcn/2ug71JiLZfkukVpm6f0cI74O6yEQP2MAihVZCSZEw0MCXsd+j5Y4zWYnTmNf6WeFlyA2AjG4ss9C2alqEQy7ywzXA+gAaZ2kRUD687+ODpFjbjAgHZKQf1TiR0uQ0A2VaRvTljgfPbwBefLPEnj6d4cYcRWlGiQ1cV0DCM3fAN9dMrujkpYacRFe3NV+QJPX1Oj0/ovx6j1+NnAeGrwi7L8lHAl5zEgf2ak2eE/3Q/cWjJvLab4d5ehg+eCnBa+yGGGjrV7P93Rsst1RW9FeH/Lpn7uSem+INvTvH4SwVieirfUXYwRl50kDoZO0PdsaJbkcb9DfZXKYKgRLfrY7jeMuUnMOBnFQoth66U9DIjqoV2N2hexhA1S2y9SrIOd3UrfOSUj0dPaIl5GtsgshqAMJ3CeQdGdend2m4CfPkVF//qa9fw1Gu76EQOhoEHrzXAmHZ1mqVoE9K+E+YuHZFFKQUxjF1bwnvrRAeDntawk/LnKLXNtVVcSuyW3Pc0/Kfd7BzK4PhyijNd4INnQjy8pdGVMYpSRT71eoEBY4XFBisHoaXuhcsz4KvngX/3x5XN7KuDKXp7t4sEHQEEhgApwpmqp+YnrejticIahPXuPcNR22b4aRlvOKnVASjxZysAV/WQ1or2p4ohqFaQPuVP8dEzwP3aEYmhlc1i03gg5dKMqiVXDo6qlroXvvcq8AeP8fGJF6j7mW3YOaNgXiTUKshPrRAUVkVdVCFOr+iWpCHobje2xTw7bc+U3/W1oIomTdUFLEppSegOLqrLSSm9UNzu4CPn+vjgGrDO0KooC0ytXFpV/pksAEPZlQG4gWgR2aSyi2d6NBWWxWQs+upOhS8+AfzJY7vIy6volGRpFWNcRLgwuUrYWiAsHLiZg8JdFQC9ThIyio08uGY+qopP7/Cltu8a0fN3bUmv+kgVVduS1owDtJqSlQLXpy0x0RhSicUCmkdovcPSqiHZlCAtKW98VE5F8yRO0ut//CEHWy3KZDmzZb8Lr2W81TQfXWdW6Bp28QPRMawEJAO1aKejndBj2x5JVfsaKI35PMgqTMcVfvNPS/zl8znGWjidXl670qhuWsN9Yryy2WYx1CEiCe6SUuHk5E0JreDjVJFBeJM2zemncdTMvjCq6PUdnD3bhR8wLiW7al2vxcv+8s8bK+Dqz5aOipxh5S6qzhrGZIY2mpYn3tRmp9M9pNMJ6PYxKTx8+r4An7zHR4sGVWNWIvsrY3ED/7Q/wjsR0WNoAHg7VOjc8anMurUcKeFSR9N3Sx8vXXXxz77K2P/Jbby6qwXAVyU++1Fp9egUUkerHyqdT1Es+J4N9WW2TXe/H6I/jDAa0uDKeK7obUkJZU+rT1FGczoeLTdnxVFpgdill6esZpMdnD1zEj91zsX7119X0cVkqttFxzAEoBcnY8Uy7b/nUVgjjaNmBS5fLvCnTwO/+xTwylUa4lV1byOyiT1K3lmNvwRQg/kZQRY9mZad6vhU/hb6vTnE14jJqr1tU01JGtS1Jartbzl8L9EmtUJbPqIoxD0bLXzohIuTqvI7RDp2BoAstik7WgvBRJXxVTDZRbFb4EvPZvh3305wZRvYydqWYFlRE1LmXt5fboq4qtSqPcRVUWmFPn3G/b2uY0t6iefqg1V7+6YJkFrBm4AKIVnqEkkl9PiR71niuR85+NH7R3jfGrAW6oyabrf3Fx07AyB4FZChIm30aYskUix//8kU/+a7GR67kGItvwS3HaCMDtm8HhfSDBQaUuVGtFhnUcwIWVMqvWfLea0N3Xo9PwEDE/EV3Yo0bJfPGOYTPWnRmb1ZioiIwC8mONUp8d6TAR7aBEZRSoOg9RHrBOFh0DEMAZTQ27PlkbVJTZGV+Nz5Dv7N8y08eQ2IMMM4Z5xFyxtqPHVFjUhbmxVZPa9fyj5gzD8aRVbfr0y19F6beqp4ZUW3Ju01MQxy5fswTamEYRcBZfVknOF96w7eT+WnHSCJl4ej+As6hklAuaExWwvbExffe6XEP/2Gg29dcJCOx4izMaZlQOurjDaZO0/yr+jtSbsoy2tVVcqYv8RoGGI4itHvBgi18CQFWsZWG59qh5oV3ZqUI+25JS7vZaiCGK2Wi341xQcZ87//ZIhzfXr8iijWvJhiBLZDomOHADQyOkMf5SzD8xem+J0nCvzBkxl2J/zEUtk+PZgLp6SRsAKfFe1LNnuvoCyqvj/AaK2NNXr/dkerJyXI0hkRQkE5rcVJJmDV3r5ZMpDPNA0tclKsMxR44EQLj5yKGAJQ+UvGBxRVrfiz35opCssW7Z3QsTMASrBsU6/PXw3wucdz/JtvJPCrFtrjHfjipt9Dq5jyOJVQHJ5lPU6kVZO1PXqnF1H5uxgMA7TaCrHqXXvrGnRK7DuTwaUjbXl2jQ5p2O/gRJTjLn8Pn3wYtpOPryV7NW1SGcJ94P87Vfob6dgZAA0BVFcr/N/fKPD7z/jw8gAn+WYv6qPt+AjTBEnVJUqI+e7xu/3DIC3z5fkuhoMe434iKJUCUIgtH8BQKo5b8BwP2UxhwvykFb0tCaVOnBhZkuDswMOH76JRpW/SRp4l44OCvNQQYejXG9Y2oWOPAAqqa8q/VpWvMF/r7xcTQqQJJnw5ZdNmHtfo/n/rGxN8+bkcF3eAiBbV41mqZFNhkP3T0CDDAV8hgfi2pE1KrKd6oYk6yvBr1p602Jx66UIrSI8GPs6c8hn714se67Mq114Kyk7XJb5WC3zjgvNLSJrt6JQ5FZfyReUVOiKT6toJ8kfoVHP65aVG1SXcMyrxnq0WTo/o9NkXWrNfmHTh97WT763WobhxZOCdjhIcGQOg/HJGhmrBXUcGwKaVaimPTNMhrNj34i7wrecm+JffLvDyNe2ERlvrymjkSBir2rq/ZKhKKFUBsOwBgEqfJY9yHjIAFbmpLbvqWnQZTkFSD5sMUs+cDtFvZxRwGtOcHCf7od1obXtvXkD6b3NXdeXlpMqcUmZ78fmepumKvxWdlJAReTRX0oASeX/rMj5Anp7d1CYpYqfkOTH+uuwLUU5mqjT9VrQYIjz2BkCbRfgUuHZGLXdpCrwQM79PJg/QJ5M9yuTXn03xf/3FZSQqAFjRrYkC4/kq6RWU1xZS5G3cQxBGfE00kM/4eYGNzbat4W/iJSF7h4K2DBSEIU0oUejObi2DgY+caHN3PGZ4NEEndNAjTwdBgYfvvQunN0J0iaikhI4ZXrOqEnb9NVB12Ow+MgYgJG8iVU1o0NkrkfCpZUnFN77/Z1+b4fe/vo0ndoaEWish3Z80PVc1E2QnoabnhISqEb1PvT6/duzt9x2sbdW7+NyKzNy+wxj0uJEtihq0MKNMTgWU+DqkYXAYXgXJDk61cjx6po/3nOqgR8+vVJ9t16XZgSa2r8vuD4OjR8YAmGmVgaTnTwmxKmdqIeeE2P8LjwOf/X6Kx17VEGDnh8K4I09UWO2843lEAp4qeVykM63lp4VQfQwHMYbroRX6eD4ZP3dFNzWtK+WvieGl64fwienplyzmlxfvkJ9tj3G/n+CegYdHTjoYRvUGHuK8Z7Mq+WTh8unAxNFFO0w6OgZgzgllSJUQlKrn2RTPXgT+9Ven+OqrAa7kbfLvsFl2TIhsKnIN78njuwwFCiSzKd8v0G2HWNvoYEQp9TzGpY6i0RuU/wZcuuD2X2Us+tiQkqFWEVXrspRLHl4z/LaIorRn332bEe7qUfGL0mYEupqRpqy2FfzwDBoRcdFSXD8Eduo3Himin0IECiWfvbid4o8eu4w/+O5FXHNb8NqxTapYeaRm5DI+tYw+4eeixl/z+nuDkAjAQ6vjUBC1nBf9mZR+0d5E4vaiLTM5VH7lQ5NZaWv5aYu+IB8jzvdw93oLj94zwD1rQEuAqkhQZTNU+bwYzbL9PIHnq05A13krp28/HRkDMCVWStgcGgCXwOl7F4B/+40xfpsGoL8xIpxKUCa7FnP9cFh3tEkLoPh+ZCggz2lQ3Qz9oW/bdXd7Pny5LoVdhKMytuLojW1Fb6VpWiIlzyLfRUjFdqdX0Mce7h0FeN+5DlEAEIqn5Lfn+4xmIzhaLtlKfen5qfW51lmg+/f5lozIYSvokTEAMpBKrI4nAc5vD/CHX0/wx49NcXnWQYuQ1aGVdbPEZlWtJLQJSa0DEzrHKdFuV1hnzK+4v6XglKQEq+fE/FyWl0x9c5O7Etq6sS0xDkhzDVPXyhuUUwy9Kc4p5j/VBf9DuVS/yoi6BAEE+clXNa1fwdda6kvDfho+lGKqicuHSUfGAMSqAsgzvHAtwh99F/jC9128dDFGHPUtfqUrIy6oEBmUWtF+JF0tC/KKHj4MnbrGfz2yRT2CsDQvpHX8PQqnKwPwZjKFr9X9xlb/WVKi7GkyVJlO0XJS3DWK8ODJLu7Z8EC2ytzSbrIp50LV0zb0agIFBgws+edaXqZOAyrrfbgMfRdoS32D+nuzZzXxWTlGPkvw7VeBf/a5Mc5fG2LUP41BGGJ3Z4LKixF4IYKUcPb1E1d0Az9fJ/oVvpVnNJqehvlC9Poxet0QEQNX1f3TApDnfL5w9jehm7P5sH3WD5mMfYs7nd8bX8uL142f2X8NnSqnUmG6e82G+B68awP3n4ox5HPPinvk+aly9PpS+JSQNuMTWwlI7Nb1aRxqfuui9uV6cWh0Z6cDK9VJr67dTWZz3irBJ/uY0eeLSYFgaLmHi1kXf/IM8NuffwWPvzQFWiPGTzFjrgJplsLjORGFOfRcZLSky0oSJHWo42qargROb0hg5e0Va2oatNblLylrO7aBx/pmF8MReUfon2WZbe6hXX59T7v8tnS1ukblLXQz0TlevHfJO1XmpZ6PTLdGPoREm3G+QzhfoqDTmfiM9IXkJ8DAmeLuQYUPnwnx3g1go60kH5u6wYmQeS3jGm3CdbuyMLB6raevG1zryfrpIdG7AAHwBqnpulWNnabGGokpn+UFEvJuWnTxlWeBL347w3MvXbVTZEiLqqAFLeD7PoL5qhSZyjGXmea8qdfuU5kuuaJ55TQAGu7z+L5jU3tzKn2Abj9Aq+VYfZUE0EqCJYg6TtJxSzhVf8cb2/Eig/S0qmKFJeXYtIS3JvRo1p6jRhYVM6AflDgzDHD3ZhsnRz7aRAS15rOJn2TogkN61LUMYd3w+nXlF73hxaGQfuGdI92tGEPVV62JKK1ZwSdTuGwJjcMXXwI+/70JvvfseUwIm5ywTXlW0qQuY5UB8IN6PPttXNXSkCvPz2aCJI9fBnXjcy2A4roFEWiGqFVhfaPD2D+E6oDENu3qq7F8xaDiqUeoqt6RQVhmKqjAqtbT8nwaHFECL/O7SMM+Cp+hJ/FqJx/jbK/AA1s+iPwxaPMwX1iWfaB+0PRehzzlNdTeLXRHDYD4UEhS3Yx+P6ERUPLJ3oS5/rTE1Qz4f/4iwZefvIIrE1oDMt1rdWkAghruasCUJI+ltfyVQV1mEvRXE3MF9V2GUlrLv8ppMDVGRWMbE9UPbMgvQrur4cCSXi2nAWA4Rm33ZADo2VTWqvXmeSW79rKSee6CoWmREvbLgDJUCj1MGXJm5E3Ivye9MR5er/DICeCuAdCWpSDbUip/rsVnbS8FojDK7MLZvRvojhqAkkqbyP3Ic9MzKXPao+RO9mbI3E08ud3H//VHl/DVJy5jt6Cl7W/C6wxoHzRsQjgr6B/yOWF/ydhV8NVXRdVSk5R/bkjl9S3m96jcjGO106xXYDgMsbHVRhBRGCmNWt67omGwvfsktYb91eT9l7vCTxl7L9CsxxmqZGyGQCKbkT0TRpsaKRnFBd53KsRDGw7OdBgK8DNJoZlOLyQAaxHJeiiV7XsXKb9IvXzHSLxIKVs7CT2Q5vlWGdx8Ai/q4fvbwO9qOa/vXCZkquvVNbMqYzybpFR4CmXge4hDwdu6rl1FLXNAsLyk+ye/6umhVF4ZR3p2JQRt7TnG/AMagA4hakZea0kvBlIWMmi4T/P7JRZ2mevKv+RMrVnJB0osEYCMq4oj5cl7YYG7yM/3nunhdKdC25khqogWiKjmpxk5ckxmWN9dvLyjBkAkhJkzPsqV/FOsRCW/lACfe0oGYIZXsgG62q6bXFehhSZYKFZV0CoG13JOj8d/BYVVc6+XmnT7ivVN2FSYMiVnUoSxCn3aGLF1OlrEQwnWBHmeWR6FJpa8pGuzmLVOHtqqP+KtGYHlJN255MoUmE5Ir8ssRUQZHAVU/p6De9YjGgEPLaIrMEzwaCR0ZD2WX1/DQC5DhtoqvHv4eUcNgL5cO6NEhPGOH1Fc24RVLXz5GeB3vnEF3zifYXj6JI8hw1QzTcYFHmNWMtKVJeZ7BTtD89dtVRpVUynMXWKqGGc6ijXNMmZsM/hBgv7AxYlTXcb9AYKgQmbKr1WAyFsNESpUsB6h9+dryahCgjqWWF6S8bPkqB+jClsM48lbGtWhO8a9vZyw38O9a0BHtlPOR+yiHPrkv0ZbxD/1hKWmxF49zg3Du4HuuAEgW23gb0Ze/WACfP5l4H/97W/juYszrA0HyCYVxgWFmgFrOw7QCqyA1QyArK0MADEuQwR6MJ+xmnm+5SVHvkeJJ9sRJUXcZoy67mNtIyT8p5pbxKSwgF7KiyiY7IEqEAtNfk3fFULUkqoX87asVI+oZFTqaeVb/qlNr3Xv0MH7t1w8TOXfiBcKHrEDtMOnJNolEqjgMVZwtcqPxrpVk2E2dsHbO093VFsEkbQ0shR6dw/46rMp/vc/fRUvl+tU5rAutkh3kIVdRgeUXDIznU2QzbSkt6rYtHAiwwPDV4pbtUy1XNf8C5aQHIZTVeEQMAkxpbZp59p6C4MB36cAZkJMWraKcDYK29CEIIUL8vgyAtcdPt8zEGF1AMvLUA0tB4Fvw9FjAqqM6KjXDnH3Wox7Bg62IsphpeIpOiNl+jVEIOPJ46TnvquKgQJFnlA2Mz5jSHXcDYA25lJT/MiASU9MhnTzCab8S+HM6IXIVa3zd2lc4ts/mOHL39/Dd15IaETXEDIsoPuHR6jqZoT3FGplUbVghYamFs2GaJS4kuDye/jKhPlYNbGR97Z4bUt2CZbyPfPVQj3kRZERriZas682jt1eTOgf1SW+dE4VPZGG+pRAVcgk4ZYsStFNJBfPrzdxk7y9s37iUEhKqFEoRUCSTbkPQXYt6ulRmLQar94ThzPySWXTcTnDyTjHg2s+3sNQarOl5DQ7h/y0PImYKFbpUaR+oWwuEqv2weKzdwkdSinwDpsu2i7o3bXWWUXpY9w+c1MagDHatJT+Hn1/6eHqAPjmsy7+6C/H+Munc1wpO/B6/IyeH5MJWomQQAdpRO8VLNzTcpGES0qrpbll6QTfq6Ie8gwYGil2L7ICs2m9qm8r8jCgh9rYitHte4jiEq5Hg6vU9VxKpdg3neSzJFQQxlvIQ5YEREa2mbw5K3psP4DLWEkz+2aU0Sn11x+Pca6dEvb7+PDZLk53tWQ3YYFJOn08r2VpKFnOI0SSqNtObap5i9bUzShgFQMkn8pPxU+KGSKMkI41xdRFyZj9mVdDfPlrV/Dk02OMaRQCN0Yx0+qzFcIogN9mPOsTOyh+WlKyIiflOObKqwIdE1JlpWkYClvQI+djTk/votML0OvV8/pbsc6VsGvev4wAr6AkFXkv/7as/xSSS/g1dVfhY6Y6ibxCSiRlw81EnCmb9kP0pxOc6ru47+QA5072MOws1utf+E72i8H6o6X8okMxAD52EZZjWx0pZ9Oa/aUbIKLAOjSyIYU3oSl45lKJ3/3zFN95zsHlvQ4FuGO7prrEZaq7LmlEJtkUXp9xarS83koGoK7KIzPZBCk9VerxUWGWvH5FXlGnbTWf0RphPx9bLXo3gS8aAAsTJKAUcBvqO4LCeluJCr/IySmU0nr9VmDmRSgopwllMMkLeAybTgdjPLQR4cFTLs4M6eBMFBfen3wUK+fsPWqkn337ybaTJqRy6J0oaxmV3s0DxlAhPC2FFADPXgP+9HsTfPF7e3h53ELm9+uKK1lcequFuie8TqFqP1mTJaYaWrIp78FukxFQ2KlQQEt6UWbnW3eF6I+o/Nq6i+/pNDUl+sxoCKfyGkICS01Faiv12lbdbDbdxw/hEBKINTmNqop+6Hvw8Drw0JaLsz1gQNn1LFsqA0Aic2VTZQoWeOAo0SEZgC6bh8xRNoAMIy9DreOdE3oybrpIL//lZ1P8wXfHeG47w9RnSNCiWIc81knqYRP2gs833EC1AYVBtGUnwX0lpRbj9MoFCPY7ZFbcDrC21qHyx+gwPg1CA7r8nMJNYVVJq9X3y8vJACwc2JI2W4dfCVHyz0aOLKziA+2jzf4rM3QChx4/xPtPxbh3AIyo/IEYJ5hqBkAXY3/Mnx1FOpz1AKirCZmYMRSIiUH9gpqd8n2ZSsak/+df7OAz3yb0v+Aib9EokJdqmm0V0iRlyZjGQPF/h2+08eJLV9Fhx7S1ifoSErlmkqminTrrr78aESFTnZRQ38faqIuNrRbahP2q97dOoFjWCEBXUBNqqEdJatnVcctJLkNLsaSkk8mIN10G9ZasJ0uK6TZ6VPZT6308esrBT50sEVjxGUMt8rzMc3jazkdDfjxJe0yKnTr9qEnoofzeGblRaPzUG5C1YhSZHRTYIQr4o68Cn/3ahPE/FT2mkjsZPFfDU7tIs20ylN0RBGSyg3RCD5dUiG2s39RgKUnCJS8u6dSjvJaGAjXtN4p9dJXwIzbtEnhpfT8lBEV13E9IWzrI8wp5xnPNiLBLltOWvk6UJ6EiDYd6dCzih0O2eckeutUUdxPuP3rCwYMbQOSR1/V+dPXxkSp/hKQUKoinhSnSUZTQQxED+R4xwxJ5FLyCkPVS4uLrrwD/9i+38b2XPeymZCSF1UlsFoANwwiX5oT7rheRuT6SKcOD3R10iRoi1QwvLYmjUuraCCjhpwxWEHmm/L1+aNN6XXotctsEU57efJLCBW3yKdhv79ehgag+bjmbJFRVI9J8wX7jFmF/m+jpNHn5wHqA+wn7T8wXSK35RgTFMKryQoJZ32oIzBCzP1TsUwcDR4sOxQBQDuGLF4RKeTnFtaKFb77q4fe+n+Dzz6e4VtbVZ2FK5U8DeBlxghMz5m8R1mpMVWPbNAuU82y6h8gVSjh6zL19xHuXB6LSm4KzyfsL+vf7bXT7MaLQoee3OIuen4IqpS8okloNiN2s2F+jBnY1GloNHdp1l7QJBynxZ8aATcVWgVtgve3iPVsd3L8Z43RcIFaOgMdm5GcupTfIr4U8db7CMeWqdI0FP48WHY4BIB9UwZcl51GFE1zKgM9/v8BvfeUyJsMNOAzogyJDPHOwFq2j3CUUy2LE4YCK3sGU0N9xI0LaDjqEuLPxJeSJNgFfUqKQ2Y5HZgAoqXwuyBoxDm13Asb9jE8JU2fp2GC/79VDhpkqJ3U4L6Hxbq3+q+o/KX+uoZklJnlvJf9U7KNpE5o23SLK3Bi0cd+ZDk73XETOjE5sbDG+Fv5gVCqfZM22+aYx0OIpxmBDaEJqR4uaJwErKmA55uMmEvJFe/E7YcYYVMtykQmFKstqQavyy2SSh51iiKcvA7/7lRxffnKM569oSC9gTF+Quaq+Eu9CK1BRuGrbKfO6lpRVjMbrVbTAlTapp/WtszTHhyyVpyz93BsH5I3uW/5JaxvIO8lrm/cmj5Nkl4qeotPzbdfe4ahlm3hqFV8ZCBULyeOLhzXUFRoQH01Ca37yPSvRJtUzBvenZgJSU7Mr1tT0uk2vqbuyikmFi+QHWWsoiJjdwlEtPVcWVOh8D8HgBDIiz3wvR8Qw9e4NHw+fdvDASeBMt0BfF7RUCvsoElKoebkg/XbZZFd/7JWa/GnTX/vuoAMgAB6q2VBawYNkQyZ8SxZUQ36LW6/KhLbAwXbu45nXKvzZN1J855k9XN4m4OJJXSX+5seKcg3HyGjwDXWeage0pJU8nc1Fl2WwWVbHS/lFkicpvBTX9SRkMgZs4ikZojBJn0u2yqwgRHXRaYcY9iMMBtq4k2EU4ZYW+1AxixJ89ZyBWiBredVrfj6/tgmy/tmHTRtpIeP7tZue/9Zmh7753LdrNzn/pk15Dkqihj51v1JOTRSTbMrG5nTh+twLFcPzXfJK6/kNwxx3jzSvH/T8QNfq+3mCZG5+vhZT1eOiSRrVNfV3L96xN44U6Zc3pJj3N0RaaMWeFK12iUjDcmm90KHiIE/KS4ZOnTX84FobX/3+Zfz5t57G1UmCkgfIaGjnWc3pd03jjx7Dbivx9jX85Ae+leZKgbM0p6BSAE35ZSrl1em5qjFaXRejURv9YcfWUJABloGw4h5SkpDPhdDEkhJ5JjW1CWMaqqOCh1RcS0aTpSrxLbw2vM4GyrRkGDrFqJXj3Ang7i3gRBdoSSO0YYqK2SSex8/vvIF0u41ITkX77gdtrZG2y3e2eXJJBtcGwCy1jaN4uDgFvvmCiy9+9zJeuJJjO6FnIiMrWtad7SsmtKEXkrfHnLv7kcFKdgINohJ3Gq4r5pDVcwPKc20UNI3UDxMMhgFGGx2b2uvbZBZKNUlxvQQ/Y9ggBLDMZHdv2i6Xn8FlbC+HLl3WDMCC8plqbsQsQ8dJcHa9wnvP+biPBmCdPk579zkMZzUnMKdgyw4cZ2p8e0KlM9WdeBQyaNyeLSGg0hWkx2ylEyBJW/jzx4EvPZHi/F4XTvcsyqBtzl6xfKpEleAZu6QeqlpesjF9VfPRW+lRCTztbyA0oOfK1ucFld8vsb7RwmC02K9f52aMYRlu8TzxUfP7Az80Y9CIqCkKtJr80/+mpBCjyT/9b0pNryknJYnSDlG+jCJ5k6eJoXnNLp8vH4kd+q+uW+LcMMSDp2Lcz7h/6M9sXj+F24yyQ9iQ02BoBv9xpub2jUfW48wysISlhYbyGJvrNT9LybRrCfANKv9Xvlvg6QsVJtVI8wLrcVNdwikw7FGC2QtpStZqX6QlpnqGXmZzzeW5LV4VnCd/ZGBLeX7G+J1+iPWtNjrdulxV+ZE6rtc1KPjm9YnOVMve1ACIdFqTdlC62TXe3A5KN7vGTZol5hZ8lBG1t8lbyqcCKi3k6WRTnBmEeM9mm0bAx8jVdjQTIga2eQjFU2ULqP76e3ypsbRIrrRltKHOokWHT+9OHmu2n7b1ukh08NjLwB989TK+89wu437CLL+NGQ8QehBp9Z5Bv0OBJYZQrLvscJV80HLdBtslvGSyhFUTUVIKqeMRpvZ8rK23CfvbCAT7hRpoOIQQ5PWV+Krr/YmqbNaffOByklKLlpQXyQBIYLWSlHAB9Tpg6zoptsIUD2wFNAAONjtaYo6hq7KElnzl8zkLpRxKmB5namwAanuYIk+0lISUn8InvvJhj588dr7EZ750AZ997Cpe3SU0NYkm/ymQ2SyxPEGs7KsJKz9lT72blka6MySFreN/jZCIVMabZRMagXG9e89mi/A/BFlnxmGxEtAC8qs01Wa05ZrZRuGlIWhKBq2bNPVlQ7rp+Tdrh3BNYf16qI/oknKnPSfdmDJHKde8ibDYxcloike3XDxyqt7Ao0MR1N4JKOe1/coY8ngphnqkHrM6vtTYAMgSemRGK+wQDZBJ5PeMgrfHsOm7zwKf/8YevvD9MV71uqg0Nu1MUWUzdGMKKo9V89kTO1e37Xpe5DOkOID9OYZk8/qpwL4vI1APA9Ylvg66hKjDUYQ+Iap28lGxihKCNs4vidYS6uwTIQCTff4xw3oAxTpupEE+zfKji7GFPWZ8b0qWqmhH9fwnu8BD6y5+9EyAzbiAAlirWC2UoxoQsRKdmgEgnGVf6DP7/BhTcwNAhmq5abLHlL9yE9raKc6/luAr397Gt55McSkdIhuM4MVaMWUGt5yqlhft0KfpcJHPcnouWltaZyUF1VHLTFJ6xar1kua1EvsUwHYnwtqoR+WPqPxkNj9TaGpJUyq/DIBem1GYh1GG/K/j32UlylOVWfxO1mBC50QwSmNQodMKcHIU497NEPcOSvTcPcozwyyxjE2DLzlDMFX7aW9qG9FSuaAudIzJVjWTGgpGan60pUzNpfB9NfGUjzpIPDEHQ+XX0p6vTF388Xev4EuPT/Di1QhRe92m7AZECPJPvKBBL3k4kSb6eL6Kempvp0sdN1oU5Jgz52sppgCTKSjv2O5bYZDieBpF243HtF9xvZb0cqzQZ3Ozj35H+/qVyFLNW1cvKWSwo+trKBxQ59j1ZZztSxrRYSCFQ0MfvGddub6+pvCoqRJfsio+1kU/tRHkH23HRQlUuOQUEwasOzg3qhjzBzjTD9GlkV1c0YjiWfePyC5SP73hkONKzpXpVH4FYabNDwmalDhRdp/wVNBJYWVAbdYe6dBS060UJWOlF2Yt/OkzDv7Hf/kMLk42Mej0caLN4y9fQBoGKLQ+1RJSoWm3bDJ6anVirs7aSyBvTPoFbpeIiIrryrKS//4Mw0GMza0BNjfIPx6zN86Q0YjGWtZ3Samc5zlkDBcr9sojyYgqAbpY41COJdekncjDlCz1GIKOqqu4L97GJ993GvfRqOrcSVKhRUM790tLTc42DYD4oF1PTdspnAYx5ZlUsaeDyGyUMzKbBiAc4Erm4Pe/NsE//73vY699P/ayFvK0QkgE0fMKGxIUpFpGkp1UQtkq9Ez5yT8lPOmpVeospV7UP/ja4Zg8q6qEdrfE2lrLtu4a9AJovQmD+fY5Bd+rMdUykrCP5Ucom3V5r1CVch8aMSmMr7KpmgQVBLGtRyG0EFe7uKud4FPv38SZOEefvk11FsS5i1zf0pMVm9a+WlwNGJsTOjEWUj2+zdfXKp4VkQEfU8byVxi8f/YbwB9/dYZLu+sMuQLEGkd1JwRkM+RxjGVev0/xp6r09GhKbyEBnyt/UtX776nEV03FPFWV0lCUNqtvsNa1zTtDOnvN5MvyxPrB1wyrJSaNbljxGHmqoVKVkWkJjnoRT9X1E/JLbum4NBzqEM3GxR7ODQN86N5NS/71aFBpbs2qqiZgSf3TW8h15ZUIo/RQUGq1IqpMrPJSFvRb4F8gd0PsVl18/TngD792Dd/5AU9u3Q2BAi30GVD5Ha9C5kXsjOU1AIr3JahqImOvJe4IY5W5t8aD2LQzrxfktoy3refX82wDD0mn0FY975/XksQuLYmB5AMZaYVSlM+KxlOlujICeu4E4fXckraKCymLJzvAg5stPHSirvqLKMcKxbT5h8CuLrsiypa5JxoA7YCqmL+qMSs/EpfUSLSyk7KF5y8D/9/nXsa3Xpxg220BLR1Le6yaa15DHTCRkTUB53lL2PSw+Fsn7GqlrxfyZDCl2v5C4/YasqOnartYX+9gfTO24T5B2czm6gv21yGEJfqWmKS0i5l9dc5Enp7KTn5q+pmiozB0Cev5KptiRG+v7bof2ASG5F/b0T5VyuyTj7TQRaYp5svN0wU5070dco3MpMuX2En1UdCbE376fL8Ku/Lt+B49/mf+HPjC4xdwmTZ2j0F+PktwutcGktRgWUIrfDlzMPAyWtxlZbBFrJQzZfcVXCmBRcWnwClpZct50bDKu/eGBdbX2lhb79H7812eWhf0ZFAtu4YIbQqvbCuvt5xEXhJhWmmvT7hPbbfROaUExBf+ofSS15XN7hswHP3RhzbxyGlgnSwL0m30tZC/OTXBMhnkOUSz95abaqAq76SH+Rsh487QLG2I7cTBY+eBzz9W4Cvfo9j6I4p4TgHfQ7dTIGW8pS2+KiemJY4QOgJmy0v1MGCdmKppPuAkpCW+eQXluKS3d+j5+za1Vwlsm7xmi3lSoGl468KgWsiFCpaXNMdBCizjqBJpMoSkNBOlzpxVmYyB2S6GfoFHTnXxIGH/CaKpPk/TsLSmWFvopcks5KshgRUZkRv8T35IAMXa2prymYZenAgXdoGvPDXBXzyziwuTEjPGCR5dVZendUPtn1YhVzZbFrrM0V8Mr0h6l7DdmO2vPYze03CV8ilS/gqtrmebdwzXWmhpAjoPyzKiAmq7wgbzduoFdQiN86KqYhlJLPRoAAT1MxpRGQFjrRqRkpBqVCXok6/n1lt49K4WthgCdHlQ4Obkd4DMCTCt+CgjoDPVF3aVFcnNW+yvfdHkgDxNibRNE7Q4BXCecf/Xn53hycuMo0bA5e1LiAhpB04H7pQwV7mAKKIRUFw7wSAmFLMVfWoWL1/TXwmuRJSvZRAouCV56rgFInr+4SDExlbX1vA358ZDeRQ/V8wvNMY4lfwvGWYtRg2WmbR6j2yq8idCQ2Zf9aRMbeuuQcvH3SeHeORsy+L+OEngZVrCjrKsEZe4jYTXmNHJ2RCs3ldctSIZAEJUM7PyPHqLjNEANJl4dSfFyzQAr00jXCvJQPcS1jep+KmD6aUc+a5P2N+DVgnLXS1akSHbu2ybJywrqbrPqvJMq+XFaVjpyjXJRzv4aPPO7iDG+kYdGsjLa+AloqfSBB/JpdYHUKJQ16gTX7UxWUaqFb8u+JHuavxfrNXmHMr4a+mOrWEXj9zn495TgCqnO20eoOFrKrr4a1vV0/mrNiVJZRT0OduK4Ewne1WuFVA0fupv01KO0KGwelTiVyYB/vFvO3jsB7sYy6oGHmIEqGhKBRIqQdVIkyklrPXa6J5mYkHz/48XbNVmHPLQtQDKI8kb1WW9UmR7X4k7PjcYr9S0kn8UXtu4kxB1OAwxYOsNAsSxS8QkvEB/T1m0qEn/7Jq8Iv/rexYLfFghzDEi8Uj3rftc0I2Z+RufFwr4iaIcNeOLEFGF2Elxop3jk48M8cAaMIzIRzuNvJKA0hxr/f6MX2Rv84/2ndTSdQpx9fmyE12Vkk5kDHkcODOzlokYrHFV4tPHX5ni6l6KgB3i574JbcGDSwpwpf3nKlphMtul0KrYJXci8vl4Kb+ozsazmSSRyLPr4rN4j2RGQPkTenDbugsZwojKr9l99Py9TsgQidfLyGmFBVJsXre+Pi9EN2cIQorPL5CRMUPDKx23Zi7duEgFtTdufM6P+aimrJTW468Yy0v5KxpVv0hwouvhQ/cOcR+Vfy2YUvnH80uQd9po0tXxtsOEzfyL+JlVVFpIpQNXRINJRpBfGl91YRt51VMg5eX42XR3gklSIi2XOA41QVQsr1Yrq0iKKoFSM4UV3zTERF4l4llaV1C22i762r2n49dVgmS5prMsNYlX1+kNL+Y0RwikoHb7yKi4RaC1Eiv03SneMyzxsXvrhTyzSolCSe+KDkKMSj2bmlt3gQM6qzkbNXZNWdYYP726VvdZZrKYnlySIRAc1ytV6MlwekREei1PrclAWeoQKdFvUXCV9Ov1Ffe7RAJEW+S4eOvJmy27EZjTwuO/lWQEFpN2bO6f2dcWof/77+rgR87EGPHNLj3WJC2xm7zthVb0NkR21oqu5flyxqqRbePL+EnIlO9vaePJOILjLbF1pXbX68wpuTd/j2RxrN7jP0MIhKZpWiDLchu77g3qzTu6Ax+BLTeb8jjFprqeXcGeLyctjOlblVY8XjSxKLV1KOicygztdBcfvmeAR891cKpP5GVBa444IHplW9HBSOE/Y8+6DiDVsJOGAWVr2S/qmgdPUohjDRGK0ctLmm5qG3iYERDX5mR8UkJwHh4orndKdGg46zX8Y8SxpDnjUWoyADfkElZ0E5pr/rxJLjXctx7M8PBaiQ+eBs4OiQQU2PNzVaT65Hu0AlQHJoozI/06D4XcoZe3UlUKM+Grkq8fuqeL9XiGclYv5bWMJO9jUF95khsMgFX9KUEnqGQKTbhKJ9TqOBgMIvRHke3ko2E8y+LPtV7PCRJu6v2Wi3T/i3YLKgt06Om1ks9P3NfGvT3Cfq8+S0U+kzS3cmEtB7aig5FNBgqp6IEQvsc434wujYLP2LULfOScg3OdXUTVVTthqYmKXyv/HPLL4xfy+uQXsZSm7ba62ryD8H/E5y0lV3Usz2HwWk8DrocQteqvjMeykmzfG5vU+Y0kXsupd8o93DN08IEzbTy8FSDOt+EUU5vAprX/2v0B5VXDrisDcFCiAZArqmPSUuk/K5JQEEAEwMf7RgU+el+Mh87S7C4t1cU89ShAnQSsi3vqAhXxz2d4EMX0+oMAww0XcVuVfQvB1rBowBcB0YJEWjP9VDvxVqFfHrp5/L+gRZSlbeEf7OWE/S3csxHY0Gogj8WQQMt9RZ5mCjrIqgg5+buig5EmUFvIL6ofZACUcdX4QIZhtIePPrSGR7V9ypKSxFS79Urh62FAGgJ5fj4X/Jen8gIfURSh2wnR6zsUUhpWR3XrGkxVxj/k+eSrwgVSGGpxkLmULzHVRuCNhqBmS80bnw7pw6cjPLjmocuYv3ADJBoKoHz6SBn7z9gHhQ0RZrYHwIoOQs706msV3B4yOv8x3xiCDKVdUJGlsqvRdIxJuIbPPg/8H3+U4OruBDt7CaYpu4Dxl6e16dVZ7EgVtRDw8rn+qpOOCwkBKDkqQdW98t7l+flU6/6FkY9WO0aLCGC0AbYUWUbjULjkCWG/oIByLCoHVsUkoVUUeQwDhCjsC5aPJCZ8kBGsVV1v1FN7Q/GHXj4OfQxjF//wEWDAcEpLzUkss2SKnkcEoM0mKGt52UJCOZTExnatFTUlZzqdkIvXu2D+7Eaq39XmH89Pgd/7s2384VdewOOvVJh6J9AdniT8Zb/Q4blJQj+X0TAwsrjJlY4uyY8nsnFsvDcrnGCIxPvWOH+379ka/p2+UAB5sdTQvhnJnNIcGg8VdVY538nHCBnvn+o6eM+JDh44NcC5DQcnaD/DG8SplsgbeXycZO2HSzQA00bSKkelOotXrgLPXaIxuFjhBxcLXLyaYjyeoZhN4ZUzGoASM7+N3Oq1jwsRzzDWNGyq1X3KGr5LeJU8bbUdtCi0qu8PfL4/P2tFb09OEJCVPlGRwqrCVp7ukn8bHR+nBj5OkJ8bdOdd8rdNA3Cc8OS7iRobgIrWGek2nHiEhJDrCl++eqXA5e0Z0qSOjZ2SMW+RIY9pBjSGeJzI5pLzngjptdJPPU1XoyUVERDj0ZDQ3p8v5mHHruhWpBWntTVcmuWWSNW+kZ2YkJ9QX5N6uvQfsRZMLRNaWY1OrXh6GNQcAVD5y+kF+N0R9cCyMShyh/4+hE83qDBXSzWlaQkvVuKr0WWPCCkpSgGcx+sCnIKtb0aeizs+Tnd+mKR8qCpQFVpJfjRJSlDfs1grpUBR+TWhKhqS4asqv8OgA4QAJZVAa7EqvSdNuKHn7F3NzPb5LqGwPm501SNEngqhdFM1Cqgfde/iwZwfhLJmFbT01Ir2IYVU4pc8u/jJR6uX4FPVR6iox4rSSJqHskIAh0KNDUDCPtljU1dpGDZ05RPVQRXNgfZklfLXpkGLMticl+NE3oR/eGNUei3yqcd6T78FDOBnMgBKAF5/b0VvT+SVlJwwIFfIZCFVYIVStRGojzInM69NWdHtp8YGQMuGaafVhb3WJguu9gwwJ6hQoDYAOk7LM9em4HiQZK8erlLhNGVWt8YnAj8WCszJkKuerIR1X5LEaLlvhQEa/BOCFD9vZJ3xk7xWaLCyqYdDzZOAOorNOsIUYD5r0ERePVTDuCJnsBDkdJCNLntESMof18LJ2zJWiBf6ZCGYfNRT+8zeWNF+ZKOlC/6RFrxbNBMz/tF8f/5f0SFQYwNgprogbBNEs56j9S5yZHlmLwOtvmJbf6u3tHpLfdqxIN26pHGu5CJxwIwiSUZgMeixCGNXdGvSArSqogzmC6TcSDkhlhWSSdT4Wq7lTYes6DZRcwMgabcYl/E+m7YR04nSC8m+VhFSR9WaMW/HiWQBNDnCFF13rTa/UfFGhtHEVEGSHbSiW9FCRkyzF/yc89SSqvzALIOakqp24IpuMzU3AAtBJynTr5WEFyeqayTyJvZ6s+EVjxQJi0ogTQ4loKLFjepRH8ybCe6KbklvgIhzxb+Rn2/goYzqiqe3n4D/H/9Nec2Z+ZjsAAAAAElFTkSuQmCC;" vertex="1" parent="1">
          <mxGeometry x="360" y="170" width="46.54" height="40" as="geometry" />
        </mxCell>
        <mxCell id="nZfVPGNK5ss3Tm6Llg2C-16" style="edgeStyle=orthogonalEdgeStyle;rounded=0;orthogonalLoop=1;jettySize=auto;html=1;" edge="1" parent="1">
          <mxGeometry relative="1" as="geometry">
            <mxPoint x="160" y="189.58" as="targetPoint" />
            <mxPoint x="40" y="189.58" as="sourcePoint" />
          </mxGeometry>
        </mxCell>
        <mxCell id="nZfVPGNK5ss3Tm6Llg2C-17" value="PI Planning, Tracking&amp;nbsp; &amp;amp; Collaboration&amp;nbsp;" style="text;html=1;strokeColor=none;fillColor=none;align=center;verticalAlign=middle;whiteSpace=wrap;rounded=0;fontSize=10;" vertex="1" parent="1">
          <mxGeometry x="40" y="153" width="120" height="30" as="geometry" />
        </mxCell>
        <mxCell id="nZfVPGNK5ss3Tm6Llg2C-22" value="" style="sketch=0;aspect=fixed;html=1;points=[];align=center;image;fontSize=12;image=img/lib/mscae/Azure_Test_Plans.svg;" vertex="1" parent="1">
          <mxGeometry x="363.96000000000004" y="416" width="30.6" height="34" as="geometry" />
        </mxCell>
        <mxCell id="nZfVPGNK5ss3Tm6Llg2C-23" value="" style="sketch=0;aspect=fixed;html=1;points=[];align=center;image;fontSize=12;image=img/lib/mscae/Azure_Pipelines.svg;" vertex="1" parent="1">
          <mxGeometry x="550" y="171" width="39" height="39" as="geometry" />
        </mxCell>
        <mxCell id="nZfVPGNK5ss3Tm6Llg2C-25" value="" style="endArrow=classic;startArrow=classic;html=1;rounded=0;" edge="1" parent="1">
          <mxGeometry width="50" height="50" relative="1" as="geometry">
            <mxPoint x="440" y="189.5" as="sourcePoint" />
            <mxPoint x="535" y="190" as="targetPoint" />
          </mxGeometry>
        </mxCell>
        <mxCell id="nZfVPGNK5ss3Tm6Llg2C-32" value="" style="aspect=fixed;html=1;points=[];align=center;image;fontSize=12;image=img/lib/azure2/identity/Users.svg;" vertex="1" parent="1">
          <mxGeometry x="-10" y="170" width="36.57" height="40" as="geometry" />
        </mxCell>
        <mxCell id="nZfVPGNK5ss3Tm6Llg2C-33" value="Regulatory process team" style="text;html=1;strokeColor=none;fillColor=none;align=center;verticalAlign=middle;whiteSpace=wrap;rounded=0;fontSize=10;" vertex="1" parent="1">
          <mxGeometry x="-40" y="210" width="100" height="30" as="geometry" />
        </mxCell>
        <mxCell id="nZfVPGNK5ss3Tm6Llg2C-34" value="" style="aspect=fixed;html=1;points=[];align=center;image;fontSize=12;image=img/lib/azure2/identity/Users.svg;" vertex="1" parent="1">
          <mxGeometry x="364.99" y="288" width="36.57" height="40" as="geometry" />
        </mxCell>
        <mxCell id="nZfVPGNK5ss3Tm6Llg2C-35" value="Test/Validation Team" style="text;html=1;strokeColor=none;fillColor=none;align=center;verticalAlign=middle;whiteSpace=wrap;rounded=0;fontSize=10;" vertex="1" parent="1">
          <mxGeometry x="346.12" y="326" width="100" height="30" as="geometry" />
        </mxCell>
        <mxCell id="nZfVPGNK5ss3Tm6Llg2C-37" value="Azure Boards" style="text;html=1;strokeColor=none;fillColor=none;align=center;verticalAlign=middle;whiteSpace=wrap;rounded=0;fontSize=10;" vertex="1" parent="1">
          <mxGeometry x="136.28" y="220" width="123.72" height="20" as="geometry" />
        </mxCell>
        <mxCell id="nZfVPGNK5ss3Tm6Llg2C-38" value="" style="endArrow=classic;startArrow=classic;html=1;rounded=0;fontSize=10;" edge="1" parent="1">
          <mxGeometry width="50" height="50" relative="1" as="geometry">
            <mxPoint x="195" y="280" as="sourcePoint" />
            <mxPoint x="195" y="250" as="targetPoint" />
          </mxGeometry>
        </mxCell>
        <mxCell id="nZfVPGNK5ss3Tm6Llg2C-40" value="" style="endArrow=classic;startArrow=classic;html=1;rounded=0;fontSize=6;" edge="1" parent="1">
          <mxGeometry width="50" height="50" relative="1" as="geometry">
            <mxPoint x="240" y="189.58" as="sourcePoint" />
            <mxPoint x="330" y="189.58" as="targetPoint" />
          </mxGeometry>
        </mxCell>
        <mxCell id="nZfVPGNK5ss3Tm6Llg2C-43" value="Process Automation" style="text;html=1;strokeColor=none;fillColor=none;align=center;verticalAlign=middle;whiteSpace=wrap;rounded=0;fontSize=10;" vertex="1" parent="1">
          <mxGeometry x="232.94" y="166" width="125.71" height="17" as="geometry" />
        </mxCell>
        <mxCell id="nZfVPGNK5ss3Tm6Llg2C-44" value="" style="shape=image;verticalLabelPosition=bottom;labelBackgroundColor=default;verticalAlign=top;aspect=fixed;imageAspect=0;image=data:image/png,iVBORw0KGgoAAAANSUhEUgAAASQAAABYCAYAAABcboriAAAAAXNSR0IArs4c6QAAAARnQU1BAACxjwv8YQUAAAAJcEhZcwAAFiUAABYlAUlSJPAAAA5rSURBVHhe7Z1drF1FFcenlGKB0hYQ5CMIVQgYYmiNij4YypuJMRQTjQZNC4m+SUuivpmWaHzRxKIxvtE2mhCfCg/EGB9ui28k2laBSAyUgvINvUVKW6A9rt+5e+gwXfvznMudi//fys7dZ589s2fPnvnPmrWnp0tGRhBCiAI4q/orhBALjgRJCFEMEiQhRDFIkIQQxSBBEkIUgwRJCFEMEiQhRDFIkIQQxSBBEkIUgwRJCFEMEiQhRDFIkIQQxSBBEkIUgwRJCFEMEiQhRDFIkIQQxSBBEkIUgwRJCFEMEiQhRDFIkIQQxSBBEkIUgwRJCFEMEiQhRDFIkIQQxSBBamHPnj1hyZIl79vWr19ffSvE/PD/2u4kSEKIYpAgCSGKQYIkhCgGCZIQohgkSEKIYpAgCSGKQYIkhCgGCZIQohiWjIxqf2JOvBXC0cMhHPtvCG8fD+HkO6Z4JnnnnBfCuStCOG+V/V1ZnTyA4++G8NiL1YcJWXFOCDdcWn1ogAVqt956a/VpjltuuWV8vAvPPPNMeOihh8L+/fvH+7B69eqwdu3acNttt43/ToKX/zXXXDNeREf+XCsSF9ul3HTTTe+dMzs7Gw4cODDej6xatep9ZeSceD024HuuyfX4W8fevXurvdOk128iTzs0HVx99dWN5aSeSMf9cb/A+fGZNaVNaatv8t+1a9d79Ui+W7duHf8d0u7I58iRI9Wn0+TPsCsHzB4x4+9zZm+YXWB2vdk6s5vNbjSbKgjSpBydHY3+8+Ro9MQjo9GBP9dvj+8djZ59fDR645UqYQ+eem00+s4D093uf7TKvIGZmRkE+32bNYzq23pIZ6JwRtp8s8Y32rlzZ5WqOwcPHuyU/6ZNm0aHDx8ep/G+p5wR717ZgDzIy/s+3TZs2DAum4cJwRnnb968ufq2nn379g1KRznydGzpPaeYGIxMLNw06cYzq8sjxUtLOuqSeqr7Hrxn0dTuduzYccb5bCZG4/rrwx/N7jJbaWa51NonzO42e8RsWkw8ZXvt3yE8+1gIrz4bwjsnqoM1vPt2CIefD+G5J0J4+aB5UObxdOUPc4PIVJl5KoR/vFB9mBKMqHfeeed4dGsazSJ4NdbRx+fH0bgNE7CwZs2aTvnHc+MoPATSkgd5tfHggw+GdevWuedaJ6z2ToO31YaXV5d0lCUH7yj/Jxjx/u69995Oz4BnxvO6/fbbOz+zCOeT1ivbUCg/bS4Hz4g20tU7OmH2U7Nvmd1vhkfUxNNmvzL7ntlvzabBRIKEqLzwL5ueHasOdARhetHE4KWn56Z1XXi95zW6MmtTy2kRG1uXjpsTXfS2Bk7eXuNrIpZrKF3KlcK5lDGvhy1btlR7p6Fzx6lmHZ74kKZNZJkO5eSiGOu9rQweiErfuqFeJhkccsir7tlS/13F6AWzH5n92GzWrA//NLvb7CdmkzJYkPCIEJVTJ6sDAyCPVw5VHz4E0Ni9xsZIReyB+AAb+xzLaWpcQOfpK0aRPp0mZ2haypp6ccRGiKHkNHkLpK8Ti+3bt1d7Z1InWKko8v0QLyel7ZnltF2LOupKvLaXp03hXI+0jl+b4e0M5V2zbWb3mU3CIEF68/W5qdo0eMVE6fCUp00LwbZt29wAKgJE56DTcQ4b+xzbuHFjddZpaGReR6PR0Xk8ELfNmzeH3bt3h4MHD463mZmZ8TFP+IYSr0Pe8Tpck2N15ALK9DTH82QiTd5m07TNEznEMO3wlMXrzGl97tu3b3y/dHCCyh48M8/7a4Jr0Daow9FoNN64TldBiu2hToy8eq7jd2a/MZuUU2bbzf5kNpRBgoSA8EZtGoxOzeU3iae10NAo7rvvzJGBhoEAeW+DOEZn80TJi2UgUl7jo5NFEWNEpEGzESfhGMKHRzYp5EFe5Ene8Tpck2N0LM/7IU0qKt6oTfk5z6NJdKiPOu/KE7m0k1Km/I0i5PXJlIf7JS3eGqLhiTzPv+4ecrgGedE2UgHKY1t1cN94Rt71+orRq2Zd4kUeG8x+aTZjtskMbAIeHjAbSm9Bwjuafan6MCXI88jL1YdFCI07FwtG0y4Ng7R5AyevdKoDaaeOxIadNuochI9O6wlfV0hLHp6wRigDZfFECYGNcJ4nkJ6wcMwT4RSvXkiDqOSkYojg5HSpT0SDczxR8vLMIR3ph7yGhyhG3v31FSN42GyPWR/Wm5l/HHabbTHjsw1P1bc2iJj1zTPSW5COWvvAq5k2iNJixetMjH5d8byGNE8a36FDZwbb6IxNIpHSpbPU4XV6D8riXYeRPB3Nvfv1PJou18WDykXLex6IYBQayuJ5R5S9S30iJt4Urcubv67X8GCNUV1QfIgYwV6zPuw0wyNKBQjwjCIExfvmG+ktSCx6nA/eMo9xsU7bvNjRPffcMx7Jumxe+rQDM6Lm4IH1GWWHdoK+4EF4XlIqEl2mbYhM3sHJl7hLTi5AniCl1/S+J++uUyaoe2PoiUVKk/fVBnl7ZceDHSJGBKL/atYVxGijWWSXGQskl5jxXcqjZkPoLUjH36x2psyJo1ZBHZcAlETaiVJoPAhJl83LI11x601b+nSeDxpPcNJ7QBy9KWTa2byOR6fzOl7qXXlCBmmZvPr0ytwE9+AFub285xvuH8+pri3W8ZrZ381SVpt5EKyOYnTEzIbScdxov5nH38yG0FuQuq4bGsKpD5EgTQpB4og36g6NQXwQeF5AXk+eACDOEW8KRxryzj2wVNTrPIjUQ/REY4gH6d3nQggSML1lQar3cqWOw2Y5HMN2mMVpGTGizWaAGPHZhtLx5zpeNxtCb0Ey72z+mM+8Fxmp4HidZaEafhe6dHjEJQ8Mx3gQ4pKKE6QxIG+6FIXIE6Qu3s+Q+iztGVAe6mboWrUIXhLezz4zgtaIU6TJK0o522wIvQXp7HOqnXlg6bJqZxHhTZ3ofHFtydAt7ZDeSNwWq1hIPK/RE1Vv+oWgtImKJzB4BnTIfLqG6OXnT0vgu97ntOCfvRBDY6rIfh14S11E6VKzXDhY2HjIDBAmXutHT4lAtT2d8X4bHzMbQm9BOveCamfK8CsA8yl284n32t5rrEPxBMkLhJdC7t2Adw918SBv2pGKCp0+XzpAffMiIce7hleWLm/IUrie96bOy3takDdvb+MUlTVRdYs1EaW2N6sXmX3OLAWPCAEiYJ3DSuyufNZsCP0FaYKfD2nifOvT2S81LBq8EXuS1+w5nhdW98aljkmmF33S0hG8jurdA9PSfKRP40GRPAYEXp17ywQ8QfLSck0vfR3esg5iW/MpSDnUKfXFK38PBDqvy5xckCJMzaKnBMSO2uJGKV80G0JvQTrf2sWyj1QfpgRCtOKi6sMixGv0jPJdp1Wcxz8DqGs8NHLvVXrdmpQcBIXlBUMhbRdRoiyel9LUUb26y/EEhHTe4sQUxM4L/iNunmdB2bvUJ8JVF3RfCKiLOlFqm7rxtqyO9FV+l7hRZI0Zge8h9Bak88xDWj1seljLKstv5SXVh0UII5XXwOnI3vQlhe85D2+n6S2JF8iNQtN0jZh/V3H0IC1l63IdT7i8skfaBMmLAUXaBKApb8/D6VKfpPM6OeVsus/5hnv11mhxL03P/qtm3zDzYIrGGiOsj8B8zYz1SUPoLUiw+vI5T2kanLM8hAsvqz4sYpoaOA2YGEVsGDQSRli8orQT85dG7XVsGpznJcVrIBj8Ew2uw8Y+x/huEjGK4L2l16H8+XXyMgNlbhKGOu8v0pS26Tto+r5uEMnrM8a08J7ibyZ58NzmM6DdBdqgF+xuCh8sNbvL7DqzafAFs2+aDWXwT9jy79mef3Lut42GssTk8Aqrh4uvqg408MOHQ3hpHlaJf/fmEL60pvrgEEf+FBqyN4riynd5u9EGMRMvnoEoMAXxfqZ0KARGY3zHu9dJwGtADNviKnQYb6oH/Gv7pjVX5O39sxpErk2IER/y9tL3oe555T9fC2l9N9Gn3aV4bZA6Ste1efDzI/ym0SR83OwXZl83G8ogDwmYtl1+bQjLz68O9GTp2SFc9sluYrRYYET23OY+0JHqRjQaFg2yLXbi0eSFtDEkLWWkrG1iBHWeTF0MKKVu2tbmPQEeDVPlSeqGt33TfIExKZ7YMZC1Bbe/b/Zzs6Gv668122o2iRjBYEGCC68wUTEP54KLqwMdYbp35Q0hXFK/lOIMrvtotTNlrurftxvBbeZ3dIaIBmJGJ25y/emgnNO0DiWHDtc2sjZB2j6dlrKRpk1MItyv9wsAXWIyded0ESSI9elN39rgN5MQtIWeqqUwAHhto02Q4AdmeDifN+vDV8zwsJj6TcpEggQrTSiuutGmXtfPvSlrenWPEF1mXtWVn7JG2DNudMe6ED495VjTHZ+xBzgPb/cYtWkACEybcCBcuPxMTRCzLo2bTtQlf77j7QtTl0k6DWnJg7zarkeZKFtXMYp4nk5b0BrogLlYIm597pdzESWmU54wpsTnxRSoJM8opYtXWse3zX5v9jMz4kFNfNkMIeL3tNmfBoNjSHW8dSSE40dDeOdYCCdPmuKZ5C1bblO7FXOLKs9aWp04kNkp/bb28mW2DVvd3hs6Mw0+DfrSYekIXeIJbeT5x3z7igJ5eDGkvIlM63qlwn1xf9xnhHvk/qbxvBYL/BrAX8yeNOO/QTpmtsKMWNFaM96kERSfJlMXJLF46SpIQswXE0/ZhBBiWkiQhBDFIEESQhSDBEkIUQwSJCFEMUiQxHvwajtnyAJPIYai1/5CiGKQhySEKAYJkhCiGCRIQohikCAJIYpBgiSEKAYJkhCiGCRIQohikCAJIYpBgiSEKAYJkhCiGCRIQohikCAJIYpBgiSEKAYJkhCiGCRIQohikCAJIYpBgiSEKAYJkhCiGCRIQohikCAJIYpBgiSEKAYJkhCiEEL4H6WMGvzO39ZDAAAAAElFTkSuQmCC;" vertex="1" parent="1">
          <mxGeometry x="526.95" y="290" width="126.09" height="38" as="geometry" />
        </mxCell>
        <mxCell id="nZfVPGNK5ss3Tm6Llg2C-45" value="Test Automation" style="text;html=1;strokeColor=none;fillColor=none;align=center;verticalAlign=middle;whiteSpace=wrap;rounded=0;fontSize=10;" vertex="1" parent="1">
          <mxGeometry x="500.00000000000006" y="322" width="160" height="34" as="geometry" />
        </mxCell>
        <mxCell id="nZfVPGNK5ss3Tm6Llg2C-47" value="Test Planning" style="text;html=1;strokeColor=none;fillColor=none;align=center;verticalAlign=middle;whiteSpace=wrap;rounded=0;fontSize=10;" vertex="1" parent="1">
          <mxGeometry x="306.26" y="450" width="150" height="34" as="geometry" />
        </mxCell>
        <mxCell id="nZfVPGNK5ss3Tm6Llg2C-48" value="Power Automate" style="text;html=1;strokeColor=none;fillColor=none;align=center;verticalAlign=middle;whiteSpace=wrap;rounded=0;fontSize=10;" vertex="1" parent="1">
          <mxGeometry x="320.40999999999997" y="216.5" width="125.71" height="17" as="geometry" />
        </mxCell>
        <mxCell id="nZfVPGNK5ss3Tm6Llg2C-50" value="" style="endArrow=classic;startArrow=classic;html=1;rounded=0;" edge="1" parent="1">
          <mxGeometry width="50" height="50" relative="1" as="geometry">
            <mxPoint x="425" y="312.5" as="sourcePoint" />
            <mxPoint x="520" y="313" as="targetPoint" />
          </mxGeometry>
        </mxCell>
        <mxCell id="nZfVPGNK5ss3Tm6Llg2C-51" value="" style="endArrow=classic;startArrow=classic;html=1;rounded=0;" edge="1" parent="1">
          <mxGeometry width="50" height="50" relative="1" as="geometry">
            <mxPoint x="250" y="310" as="sourcePoint" />
            <mxPoint x="345" y="310.5" as="targetPoint" />
          </mxGeometry>
        </mxCell>
        <mxCell id="nZfVPGNK5ss3Tm6Llg2C-55" value="" style="endArrow=classic;startArrow=classic;html=1;rounded=0;" edge="1" parent="1">
          <mxGeometry width="50" height="50" relative="1" as="geometry">
            <mxPoint x="560" y="239" as="sourcePoint" />
            <mxPoint x="560" y="289" as="targetPoint" />
          </mxGeometry>
        </mxCell>
        <mxCell id="nZfVPGNK5ss3Tm6Llg2C-56" value="Azure Pipelines" style="text;html=1;strokeColor=none;fillColor=none;align=center;verticalAlign=middle;whiteSpace=wrap;rounded=0;fontSize=10;" vertex="1" parent="1">
          <mxGeometry x="484.50000000000006" y="210" width="160" height="34" as="geometry" />
        </mxCell>
        <mxCell id="nZfVPGNK5ss3Tm6Llg2C-57" value="" style="endArrow=classic;startArrow=classic;html=1;rounded=0;exitX=0.339;exitY=1.144;exitDx=0;exitDy=0;exitPerimeter=0;" edge="1" parent="1" source="nZfVPGNK5ss3Tm6Llg2C-35">
          <mxGeometry width="50" height="50" relative="1" as="geometry">
            <mxPoint x="435" y="322.5" as="sourcePoint" />
            <mxPoint x="380" y="400" as="targetPoint" />
          </mxGeometry>
        </mxCell>
      </root>
    </mxGraphModel>
  </diagram>
</mxfile>
